M48
; DRILL file KiCad 10.0.1 date 2026-04-20T20:43:20
; FORMAT={-:-/ absolute / inch / decimal}
; #@! TF.CreationDate,2026-04-20T20:43:20+02:00
; #@! TF.GenerationSoftware,Kicad,Pcbnew,10.0.1
; #@! TF.FileFunction,Plated,1,4,PTH
FMAT,2
INCH
; #@! TA.AperFunction,Plated,PTH,ViaDrill
T1C0.0118
; #@! TA.AperFunction,Plated,PTH,ComponentDrill
T2C0.0236
; #@! TA.AperFunction,Plated,PTH,ComponentDrill
T3C0.0256
; #@! TA.AperFunction,Plated,PTH,ComponentDrill
T4C0.0315
; #@! TA.AperFunction,Plated,PTH,ComponentDrill
T5C0.0394
; #@! TA.AperFunction,Plated,PTH,ComponentDrill
T6C0.0394
; #@! TA.AperFunction,Plated,PTH,ComponentDrill
T7C0.0512
; #@! TA.AperFunction,Plated,PTH,ComponentDrill
T8C0.0551
; #@! TA.AperFunction,Plated,PTH,ComponentDrill
T9C0.0709
; #@! TA.AperFunction,Plated,PTH,ComponentDrill
T10C0.0752
%
G90
G05
T1
X0.2264Y1.25
X0.2264Y1.2106
X0.2264Y1.1713
X0.2264Y1.1319
X0.2461Y1.3091
X0.2461Y1.2697
X0.2461Y1.2303
X0.2461Y1.1909
X0.2461Y1.1516
X0.2461Y1.1122
X0.2657Y1.2894
X0.2657Y1.25
X0.2657Y1.2106
X0.2657Y1.1713
X0.2657Y1.1319
X0.2657Y1.0925
X0.2854Y1.3091
X0.2854Y1.2697
X0.2854Y1.2303
X0.2854Y1.1909
X0.2854Y1.1516
X0.2854Y1.1122
X0.2953Y0.9055
X0.3051Y1.2894
X0.3051Y1.25
X0.3051Y1.2106
X0.3051Y1.1713
X0.3051Y1.1319
X0.3051Y1.0925
X0.3248Y1.2697
X0.3248Y1.2303
X0.3248Y1.1909
X0.3248Y1.1516
X0.3248Y1.1122
X0.374Y0.8071
X0.374Y0.7677
X0.4331Y0.6693
X0.4626Y0.7382
X0.5118Y0.7283
X0.6102Y0.8465
X0.6102Y0.8071
X0.6693Y3.4547
X0.6988Y1.9783
X0.6988Y1.939
X0.6988Y1.8996
X0.6988Y1.8602
X0.7382Y1.9783
X0.7382Y1.939
X0.7382Y1.8996
X0.7382Y1.8602
X0.7776Y1.9783
X0.7776Y1.939
X0.7776Y1.8996
X0.8563Y2.9232
X0.9154Y2.372
X0.9744Y2.372
X1.0138Y2.5295
X1.0906Y1.2205
X1.0925Y3.6811
X1.1319Y2.2933
X1.1713Y3.3858
X1.1713Y3.3465
X1.1713Y3.3071
X1.1713Y2.2933
X1.1909Y3.1299
X1.2106Y3.3858
X1.2106Y3.3465
X1.2106Y3.3071
X1.2205Y3.6614
X1.2402Y1.7421
X1.25Y3.3858
X1.25Y3.3465
X1.25Y3.3071
X1.2894Y3.3465
X1.2972Y3.6614
X1.3189Y3.8287
X1.3405Y3.6811
X1.3583Y1.25
X1.4764Y3.7909
X1.4961Y0.7677
X1.5157Y0.9055
X1.752Y3.5925
X1.752Y3.5531
X1.752Y3.5138
X1.7913Y3.5925
X1.7913Y3.5531
X1.7913Y3.5138
X1.8307Y3.5925
X1.8307Y3.5531
X1.8307Y3.5138
X1.8307Y0.6102
X1.8307Y0.5906
X1.8504Y0.6102
X1.8504Y0.5906
X1.8701Y3.5531
X1.8701Y0.6102
X1.8701Y0.5906
X1.9094Y1.2402
X1.9118Y0.5808
X1.9882Y0.6102
X2.0079Y0.7677
X2.1061Y0.7019
X2.1063Y0.7283
X2.126Y0.6762
X2.1654Y0.6506
X2.1752Y2.0276
X2.2638Y0.7874
X2.2835Y0.8268
X2.2835Y0.748
X2.3031Y1.5551
X2.3031Y0.7874
X2.3031Y0.7087
X2.3228Y0.748
X2.3425Y0.7874
X2.3425Y0.7087
X2.3622Y1.9291
X2.3622Y0.748
X2.3688Y3.716
X2.3712Y3.6811
X2.3712Y3.6457
X2.3819Y0.7874
X2.3819Y0.7087
X2.3878Y0.4886
X2.4016Y0.748
X2.4038Y0.5142
X2.4208Y0.5398
X2.4213Y1.8701
X2.422Y0.4886
X2.438Y0.5142
X2.4539Y1.1598
X2.455Y0.5398
X2.4562Y0.4886
X2.4606Y1.9193
X2.471Y1.5608
X2.4722Y0.5142
X2.4746Y1.1195
X2.4892Y0.5398
X2.4903Y1.77
X2.4904Y0.4886
X2.4992Y1.2602
X2.5Y1.4508
X2.5Y1.62
X2.5064Y0.5142
X2.5179Y1.0585
X2.5234Y0.5398
X2.5246Y0.4886
X2.5406Y0.5142
X2.5573Y1.0585
X2.5576Y0.5398
X2.5588Y0.4886
X2.57Y1.7
X2.5748Y0.5142
X2.5913Y1.0168
X2.5918Y0.5398
X2.593Y0.4886
X2.609Y0.5142
X2.626Y0.5398
X2.6272Y0.4886
X2.6432Y0.5142
X2.6459Y1.0978
X2.6476Y2.0374
X2.6575Y1.6024
X2.6602Y0.5398
X2.6614Y0.4886
X2.68Y1.84
X2.68Y1.8
X2.68Y1.76
X2.68Y1.73
X2.6862Y1.6024
X2.687Y1.9685
X2.7208Y1.2796
X2.7543Y1.2697
X2.758Y1.5966
X2.77Y1.71
X2.7953Y1.901
X2.7953Y1.5945
X2.815Y1.5748
X2.8427Y1.6106
X2.8543Y1.9094
X2.8632Y0.6161
X2.873Y0.5591
X2.878Y0.7096
X2.8801Y1.7819
X2.885Y3.5004
X2.8919Y1.7484
X2.9205Y3.4787
X2.9313Y1.7484
X2.9406Y2.0815
X2.9518Y0.7421
X2.9528Y1.1614
X2.9559Y3.5004
X2.9755Y1.1788
X2.9862Y0.7096
X2.9913Y3.4787
X3.0Y1.2008
X3.0002Y1.7415
X3.0159Y1.6116
X3.0226Y0.7087
X3.0268Y3.5004
X3.0396Y1.7415
X3.0433Y1.2913
X3.0433Y1.248
X3.0435Y1.6116
X3.0443Y0.6161
X3.0494Y1.7819
X3.0541Y0.5591
X3.0591Y0.7096
X3.0622Y3.5004
X3.0681Y1.7189
X3.0898Y1.7386
X3.0976Y3.4787
X3.11Y1.57
X3.1105Y1.7181
X3.1252Y0.9827
X3.1291Y3.6067
X3.1329Y0.7421
X3.14Y1.67
X3.14Y1.63
X3.1596Y1.0506
X3.1596Y1.0112
X3.1614Y3.5236
X3.1673Y0.7096
X3.1841Y0.6161
X3.1861Y0.7868
X3.1911Y0.9305
X3.1976Y1.7882
X3.1976Y1.7528
X3.2266Y1.4157
X3.2276Y1.0771
X3.2276Y1.0377
X3.2398Y1.6593
X3.2492Y1.2299
X3.2587Y1.6106
X3.261Y1.4177
X3.2636Y1.6584
X3.2677Y1.2638
X3.2756Y1.5748
X3.2874Y0.748
X3.2965Y1.4177
X3.3043Y3.6835
X3.3071Y0.5709
X3.3142Y1.022
X3.3319Y1.4167
X3.3457Y3.5457
X3.3457Y3.5142
X3.3506Y1.3228
X3.3594Y1.2248
X3.3693Y1.4364
X3.385Y3.5457
X3.385Y3.5142
X3.3988Y1.4059
X3.4055Y1.7323
X3.4136Y1.4502
X3.4146Y1.2514
X3.4242Y1.6513
X3.4382Y1.4059
X3.4461Y1.4866
X3.4598Y0.65
X3.4598Y0.6087
X3.4657Y1.0368
X3.4854Y0.4866
X3.5031Y0.65
X3.5031Y0.6087
X3.5376Y1.274
X3.5524Y0.5772
X3.5602Y0.6913
X3.5627Y1.732
X3.5642Y1.0364
X3.5809Y0.8508
X3.5937Y1.2748
X3.6114Y0.585
X3.6134Y1.4236
X3.6134Y1.3803
X3.6137Y0.6311
X3.6213Y1.2996
X3.6213Y1.0102
X3.6232Y0.8783
X3.6429Y0.6835
X3.6449Y1.3587
X3.6449Y0.4669
X3.6488Y0.6106
X3.6547Y1.5575
X3.6547Y1.4787
X3.6606Y1.2996
X3.6606Y1.0102
X3.6744Y0.7524
X3.6823Y1.3587
X3.698Y1.1205
X3.7008Y0.8268
X3.7197Y0.5791
X3.7197Y0.4866
X3.7236Y1.2741
X3.7236Y1.2347
X3.7276Y0.7346
X3.7295Y0.6992
X3.7362Y0.9173
X3.7374Y0.6106
X3.7425Y0.385
X3.7827Y0.4583
T3
X3.3873Y1.0678
X3.4227Y1.1031
X3.458Y1.1385
X3.4934Y1.1738
X3.5287Y1.2092
X3.5641Y1.2446
T4
X1.7504Y3.878
X1.8504Y3.878
X1.9504Y3.878
X2.3114Y3.8071
X2.3756Y3.8071
X2.4441Y3.8071
X2.5082Y3.8071
T5
X2.2126Y2.1752
X2.5118Y2.1752
T6
X0.4185Y0.4091
X0.4185Y0.3091
X0.4185Y0.2091
X0.5185Y0.4091
X0.5185Y0.3091
X0.5185Y0.2091
X0.6185Y0.4091
X0.6185Y0.3091
X0.6185Y0.2091
X0.7185Y0.4091
X0.7185Y0.3091
X0.7185Y0.2091
X0.8185Y0.4091
X0.8185Y0.3091
X0.8185Y0.2091
X0.9185Y0.4091
X0.9185Y0.3091
X0.9185Y0.2091
X1.0185Y0.4091
X1.0185Y0.3091
X1.0185Y0.2091
X1.1185Y0.4091
X1.1185Y0.3091
X1.1185Y0.2091
X1.2185Y0.4091
X1.2185Y0.3091
X1.2185Y0.2091
X1.3185Y0.4091
X1.3185Y0.3091
X1.3185Y0.2091
X1.4185Y0.4091
X1.4185Y0.3091
X1.4185Y0.2091
X1.5185Y0.4091
X1.5185Y0.3091
X1.5185Y0.2091
X1.6185Y0.4091
X1.6185Y0.3091
X1.6185Y0.2091
X1.7185Y0.4091
X1.7185Y0.3091
X1.7185Y0.2091
X1.8185Y0.4091
X1.8185Y0.3091
X1.8185Y0.2091
X1.9185Y0.4091
X1.9185Y0.3091
X1.9185Y0.2091
X2.0185Y0.4091
X2.0185Y0.3091
X2.0185Y0.2091
X2.1185Y0.4091
X2.1185Y0.3091
X2.1185Y0.2091
X2.2185Y0.4091
X2.2185Y0.3091
X2.2185Y0.2091
X2.3185Y0.4091
X2.3185Y0.3091
X2.3185Y0.2091
X2.4185Y0.4091
X2.4185Y0.3091
X2.4185Y0.2091
X2.5185Y0.4091
X2.5185Y0.3091
X2.5185Y0.2091
X2.6185Y0.4091
X2.6185Y0.3091
X2.6185Y0.2091
X2.6572Y3.7598
X2.6572Y3.6598
X2.7185Y0.4091
X2.7185Y0.3091
X2.7185Y0.2091
X2.7572Y3.7598
X2.7572Y3.6598
X2.8185Y0.4091
X2.8185Y0.3091
X2.8185Y0.2091
X2.856Y3.7598
X2.856Y3.6598
X2.9185Y0.4091
X2.9185Y0.3091
X2.9185Y0.2091
X2.956Y3.7598
X2.956Y3.6598
X3.0185Y0.4091
X3.0185Y0.3091
X3.0185Y0.2091
X3.1185Y0.4091
X3.1185Y0.3091
X3.1185Y0.2091
X3.2185Y0.4091
X3.2185Y0.3091
X3.2185Y0.2091
X3.3185Y0.4091
X3.3185Y0.3091
X3.3185Y0.2091
X3.4185Y0.4091
X3.4185Y0.3091
X3.4185Y0.2091
X3.5185Y0.4091
X3.5185Y0.3091
X3.5185Y0.2091
T7
X2.272Y3.7185
X2.5476Y3.7185
T8
X0.2559Y3.3937
X0.2559Y3.2283
X0.2559Y3.063
X0.2559Y2.8976
X0.2559Y2.7323
X0.2559Y2.5669
X0.2559Y2.4016
X0.2559Y2.2362
X0.2559Y2.0709
X0.2559Y1.9055
X0.2559Y1.7402
X0.2559Y1.5748
X0.4724Y3.3937
X0.4724Y3.2283
X0.4724Y3.063
X0.4724Y2.8976
X0.4724Y2.7323
X0.4724Y2.5669
X0.4724Y2.4016
X0.4724Y2.2362
X0.4724Y2.0709
X0.4724Y1.9055
X0.4724Y1.7402
X0.4724Y1.5748
X1.2898Y3.0236
X1.4398Y1.0236
X1.5898Y3.0236
X1.5898Y1.0236
X1.7398Y1.0236
X1.8898Y3.0236
T9
X3.0118Y3.248
X3.0118Y3.0827
X3.0118Y2.9173
X3.0118Y2.6043
X3.0118Y2.439
X3.0118Y2.2736
X3.2283Y3.248
X3.2283Y3.0827
X3.2283Y2.9173
X3.2283Y2.6043
X3.2283Y2.439
X3.2283Y2.2736
T10
X1.2898Y1.0236
X1.8898Y1.0236
T2
G00X3.085Y3.8159
M15
G01X3.085Y3.8474
M16
G05
G00X3.085Y3.6455
M15
G01X3.085Y3.6888
M16
G05
G00X3.4252Y3.8159
M15
G01X3.4252Y3.8474
M16
G05
G00X3.4252Y3.6455
M15
G01X3.4252Y3.6888
M16
G05
M30
