%TF.GenerationSoftware,KiCad,Pcbnew,10.0.1*%
%TF.CreationDate,2026-04-20T20:43:20+02:00*%
%TF.ProjectId,ATX_PSU,4154585f-5053-4552-9e6b-696361645f70,0*%
%TF.SameCoordinates,Original*%
%TF.FileFunction,Legend,Bot*%
%TF.FilePolarity,Positive*%
%FSLAX46Y46*%
G04 Gerber Fmt 4.6, Leading zero omitted, Abs format (unit mm)*
G04 Created by KiCad (PCBNEW 10.0.1) date 2026-04-20 20:43:20*
%MOMM*%
%LPD*%
G01*
G04 APERTURE LIST*
G04 Aperture macros list*
%AMRoundRect*
0 Rectangle with rounded corners*
0 $1 Rounding radius*
0 $2 $3 $4 $5 $6 $7 $8 $9 X,Y pos of 4 corners*
0 Add a 4 corners polygon primitive as box body*
4,1,4,$2,$3,$4,$5,$6,$7,$8,$9,$2,$3,0*
0 Add four circle primitives for the rounded corners*
1,1,$1+$1,$2,$3*
1,1,$1+$1,$4,$5*
1,1,$1+$1,$6,$7*
1,1,$1+$1,$8,$9*
0 Add four rect primitives between the rounded corners*
20,1,$1+$1,$2,$3,$4,$5,0*
20,1,$1+$1,$4,$5,$6,$7,0*
20,1,$1+$1,$6,$7,$8,$9,0*
20,1,$1+$1,$8,$9,$2,$3,0*%
%AMRotRect*
0 Rectangle, with rotation*
0 The origin of the aperture is its center*
0 $1 length*
0 $2 width*
0 $3 Rotation angle, in degrees counterclockwise*
0 Add horizontal line*
21,1,$1,$2,0,0,$3*%
G04 Aperture macros list end*
%ADD10C,0.100000*%
%ADD11C,0.200000*%
%ADD12C,0.400000*%
%ADD13C,0.010000*%
%ADD14C,0.120000*%
%ADD15C,0.000000*%
%ADD16C,1.600000*%
%ADD17C,1.800000*%
%ADD18RoundRect,0.250001X1.399999X-1.099999X1.399999X1.099999X-1.399999X1.099999X-1.399999X-1.099999X0*%
%ADD19O,3.300000X2.700000*%
%ADD20C,3.000000*%
%ADD21RoundRect,0.250001X-1.599999X1.099999X-1.599999X-1.099999X1.599999X-1.099999X1.599999X1.099999X0*%
%ADD22O,3.700000X2.700000*%
%ADD23C,0.650000*%
%ADD24O,1.000000X2.100000*%
%ADD25O,1.000000X1.800000*%
%ADD26C,2.850000*%
%ADD27RoundRect,0.249999X0.525001X0.525001X-0.525001X0.525001X-0.525001X-0.525001X0.525001X-0.525001X0*%
%ADD28C,1.550000*%
%ADD29C,2.400000*%
%ADD30C,2.910000*%
%ADD31C,1.300000*%
%ADD32C,2.286000*%
%ADD33R,1.500000X1.500000*%
%ADD34RotRect,1.000000X1.000000X315.000000*%
%ADD35C,1.000000*%
G04 APERTURE END LIST*
D10*
X61666000Y37048000D02*
X64206000Y30444000D01*
X61739026Y44893061D02*
X77539025Y44893061D01*
X77539025Y37893061D01*
X61739026Y37893061D01*
X61739026Y44893061D01*
X62670413Y35281587D02*
X63165504Y35279388D01*
X62670413Y35281587D02*
X63190000Y34000000D01*
X62739026Y43893061D02*
X61739026Y44893061D01*
X62739585Y38893620D02*
X61739026Y37893061D01*
X63253500Y34000000D02*
X71572000Y34000000D01*
X64206000Y30444000D02*
X74112000Y30444000D01*
X64502628Y29708719D02*
X64206000Y30444000D01*
X64502628Y29708719D02*
X74479527Y29710118D01*
X64511917Y29690143D02*
X65272637Y27700391D01*
X64968000Y30444000D02*
X64714000Y30952000D01*
X65272637Y27700391D02*
X66034637Y27446391D01*
X65730000Y30444000D02*
X65476000Y30952000D01*
X65781917Y28948242D02*
X64511917Y29690143D01*
X66034637Y27446391D02*
X66542637Y26684391D01*
X66162917Y29710242D02*
X65781917Y28948242D01*
X66162917Y29710242D02*
X66924917Y28186242D01*
X66492000Y30444000D02*
X66238000Y30952000D01*
X66636208Y26684391D02*
G75*
G02*
X66449066Y26684391I-93571J0D01*
G01*
X66449066Y26684391D02*
G75*
G02*
X66636208Y26684391I93571J0D01*
G01*
X67172201Y28948242D02*
G75*
G02*
X66985059Y28948242I-93571J0D01*
G01*
X66985059Y28948242D02*
G75*
G02*
X67172201Y28948242I93571J0D01*
G01*
X67254000Y30444000D02*
X67000000Y30952000D01*
X67508000Y30444000D02*
X66238000Y30444000D01*
X67813917Y29710242D02*
X68575917Y28186242D01*
X68016000Y30444000D02*
X67762000Y30952000D01*
X68194917Y28948242D02*
X67078630Y28948242D01*
X68575917Y29710242D02*
X69337917Y28186242D01*
X68575917Y28186242D02*
X66924917Y28186242D01*
X68778000Y30444000D02*
X68524000Y30952000D01*
X68829917Y27170242D02*
X69337917Y26154242D01*
X69032000Y30444000D02*
X67508000Y30444000D01*
X69083917Y27678242D02*
X68829917Y27170242D01*
X69286000Y30444000D02*
X69032000Y30444000D01*
X69286000Y30444000D02*
X70556000Y30444000D01*
X69337917Y28186242D02*
X69591917Y27678242D01*
X69431488Y26154242D02*
G75*
G02*
X69244346Y26154242I-93571J0D01*
G01*
X69244346Y26154242D02*
G75*
G02*
X69431488Y26154242I93571J0D01*
G01*
X69540000Y30444000D02*
X69286000Y30952000D01*
X69591917Y27678242D02*
X69083917Y27678242D01*
X69845917Y29202242D02*
X70352123Y28184192D01*
X70302000Y30444000D02*
X70048000Y30952000D01*
X70353917Y28186242D02*
X71623917Y28186242D01*
X70861917Y29710242D02*
X71115917Y29202242D01*
X71064000Y30444000D02*
X70810000Y30952000D01*
X71115917Y29202242D02*
X69845917Y29202242D01*
X71209488Y29202242D02*
G75*
G02*
X71022346Y29202242I-93571J0D01*
G01*
X71022346Y29202242D02*
G75*
G02*
X71209488Y29202242I93571J0D01*
G01*
X71318000Y37048000D02*
X61666000Y37048000D01*
X71369917Y29710242D02*
X71623917Y29202242D01*
X71572000Y34000000D02*
X72109282Y34005537D01*
X71623917Y29202242D02*
X72130123Y28184192D01*
X71623917Y28186242D02*
X72131917Y28186242D01*
X71873869Y26809598D02*
G75*
G02*
X71686727Y26809598I-93571J0D01*
G01*
X71686727Y26809598D02*
G75*
G02*
X71873869Y26809598I93571J0D01*
G01*
X71826000Y30444000D02*
X71572000Y30952000D01*
X72034298Y27317598D02*
X71780298Y26809598D01*
X72038346Y27330671D02*
X71623917Y28186242D01*
X72131917Y28186242D02*
X73147917Y28186242D01*
X72512917Y29710242D02*
X72766917Y29202242D01*
X72588000Y30444000D02*
X72207000Y30444000D01*
X72588000Y30444000D02*
X72334000Y30952000D01*
X72588000Y30444000D02*
X73858000Y30444000D01*
X72628869Y32723950D02*
X72109282Y34005537D01*
X72628869Y32723950D02*
X72133778Y32726149D01*
X72766917Y29202242D02*
X71623917Y29202242D01*
X73350000Y30444000D02*
X73096000Y30952000D01*
X73401917Y29202242D02*
X73910585Y28184833D01*
X73910585Y28184833D02*
X75182379Y28186883D01*
D11*
X73967863Y20422126D02*
X73980415Y23632352D01*
D10*
X74112000Y30444000D02*
X71318000Y37048000D01*
X74112000Y30444000D02*
X74479527Y29710118D01*
X74479527Y29710118D02*
X74744783Y29195132D01*
X74744783Y29195132D02*
X73401917Y29202242D01*
D11*
X74873074Y23987755D02*
G75*
G02*
X75976767Y24020812I578326J-867554D01*
G01*
X74883596Y23987942D02*
G75*
G02*
X73980415Y23632359I-879996J910359D01*
G01*
X74902997Y20778123D02*
G75*
G02*
X76006729Y20811246I578403J-867722D01*
G01*
X74914558Y20777235D02*
G75*
G02*
X73967862Y20422704I-880958J911166D01*
G01*
D10*
X75596808Y27331312D02*
X75182379Y28186883D01*
X75690379Y27331312D02*
G75*
G02*
X75503237Y27331312I-93571J0D01*
G01*
X75503237Y27331312D02*
G75*
G02*
X75690379Y27331312I93571J0D01*
G01*
D11*
X75991555Y20811973D02*
X76008445Y24000000D01*
X75991555Y20811973D02*
G75*
G02*
X77095255Y20778882I525345J-900572D01*
G01*
X76008445Y24000000D02*
G75*
G02*
X77084740Y23973489I516655J-885799D01*
G01*
D10*
X76500000Y43900000D02*
X77500000Y44900000D01*
X76500000Y38900000D02*
X77500000Y37900000D01*
D11*
X77972755Y20430974D02*
G75*
G02*
X77090056Y20784580I-8055J1258427D01*
G01*
X77972755Y20430974D02*
X77983381Y23614437D01*
X77983381Y23614437D02*
G75*
G02*
X77084756Y23973511I-10481J1277764D01*
G01*
D10*
X85000000Y32000000D02*
G75*
G02*
X75000000Y32000000I-5000000J0D01*
G01*
X75000000Y32000000D02*
G75*
G02*
X85000000Y32000000I5000000J0D01*
G01*
X77999798Y19044595D02*
X77999798Y19644595D01*
X77999798Y19644595D02*
X77856941Y19644595D01*
X77856941Y19644595D02*
X77771227Y19616024D01*
X77771227Y19616024D02*
X77714084Y19558881D01*
X77714084Y19558881D02*
X77685513Y19501738D01*
X77685513Y19501738D02*
X77656941Y19387452D01*
X77656941Y19387452D02*
X77656941Y19301738D01*
X77656941Y19301738D02*
X77685513Y19187452D01*
X77685513Y19187452D02*
X77714084Y19130309D01*
X77714084Y19130309D02*
X77771227Y19073166D01*
X77771227Y19073166D02*
X77856941Y19044595D01*
X77856941Y19044595D02*
X77999798Y19044595D01*
X77399798Y19358881D02*
X77199798Y19358881D01*
X77114084Y19044595D02*
X77399798Y19044595D01*
X77399798Y19044595D02*
X77399798Y19644595D01*
X77399798Y19644595D02*
X77114084Y19644595D01*
X76885513Y19073166D02*
X76799799Y19044595D01*
X76799799Y19044595D02*
X76656941Y19044595D01*
X76656941Y19044595D02*
X76599799Y19073166D01*
X76599799Y19073166D02*
X76571227Y19101738D01*
X76571227Y19101738D02*
X76542656Y19158881D01*
X76542656Y19158881D02*
X76542656Y19216024D01*
X76542656Y19216024D02*
X76571227Y19273166D01*
X76571227Y19273166D02*
X76599799Y19301738D01*
X76599799Y19301738D02*
X76656941Y19330309D01*
X76656941Y19330309D02*
X76771227Y19358881D01*
X76771227Y19358881D02*
X76828370Y19387452D01*
X76828370Y19387452D02*
X76856941Y19416024D01*
X76856941Y19416024D02*
X76885513Y19473166D01*
X76885513Y19473166D02*
X76885513Y19530309D01*
X76885513Y19530309D02*
X76856941Y19587452D01*
X76856941Y19587452D02*
X76828370Y19616024D01*
X76828370Y19616024D02*
X76771227Y19644595D01*
X76771227Y19644595D02*
X76628370Y19644595D01*
X76628370Y19644595D02*
X76542656Y19616024D01*
X76285512Y19044595D02*
X76285512Y19644595D01*
X75685513Y19616024D02*
X75742656Y19644595D01*
X75742656Y19644595D02*
X75828370Y19644595D01*
X75828370Y19644595D02*
X75914084Y19616024D01*
X75914084Y19616024D02*
X75971227Y19558881D01*
X75971227Y19558881D02*
X75999798Y19501738D01*
X75999798Y19501738D02*
X76028370Y19387452D01*
X76028370Y19387452D02*
X76028370Y19301738D01*
X76028370Y19301738D02*
X75999798Y19187452D01*
X75999798Y19187452D02*
X75971227Y19130309D01*
X75971227Y19130309D02*
X75914084Y19073166D01*
X75914084Y19073166D02*
X75828370Y19044595D01*
X75828370Y19044595D02*
X75771227Y19044595D01*
X75771227Y19044595D02*
X75685513Y19073166D01*
X75685513Y19073166D02*
X75656941Y19101738D01*
X75656941Y19101738D02*
X75656941Y19301738D01*
X75656941Y19301738D02*
X75771227Y19301738D01*
X75399798Y19044595D02*
X75399798Y19644595D01*
X75399798Y19644595D02*
X75056941Y19044595D01*
X75056941Y19044595D02*
X75056941Y19644595D01*
X74771227Y19358881D02*
X74571227Y19358881D01*
X74485513Y19044595D02*
X74771227Y19044595D01*
X74771227Y19044595D02*
X74771227Y19644595D01*
X74771227Y19644595D02*
X74485513Y19644595D01*
X74228370Y19044595D02*
X74228370Y19644595D01*
X74228370Y19644595D02*
X74085513Y19644595D01*
X74085513Y19644595D02*
X73999799Y19616024D01*
X73999799Y19616024D02*
X73942656Y19558881D01*
X73942656Y19558881D02*
X73914085Y19501738D01*
X73914085Y19501738D02*
X73885513Y19387452D01*
X73885513Y19387452D02*
X73885513Y19301738D01*
X73885513Y19301738D02*
X73914085Y19187452D01*
X73914085Y19187452D02*
X73942656Y19130309D01*
X73942656Y19130309D02*
X73999799Y19073166D01*
X73999799Y19073166D02*
X74085513Y19044595D01*
X74085513Y19044595D02*
X74228370Y19044595D01*
X77999798Y18078629D02*
X77999798Y18678629D01*
X77714084Y18078629D02*
X77714084Y18678629D01*
X77714084Y18678629D02*
X77371227Y18078629D01*
X77371227Y18078629D02*
X77371227Y18678629D01*
X76628370Y18078629D02*
X76628370Y18678629D01*
X76628370Y18678629D02*
X76399799Y18678629D01*
X76399799Y18678629D02*
X76342656Y18650058D01*
X76342656Y18650058D02*
X76314085Y18621486D01*
X76314085Y18621486D02*
X76285513Y18564343D01*
X76285513Y18564343D02*
X76285513Y18478629D01*
X76285513Y18478629D02*
X76314085Y18421486D01*
X76314085Y18421486D02*
X76342656Y18392915D01*
X76342656Y18392915D02*
X76399799Y18364343D01*
X76399799Y18364343D02*
X76628370Y18364343D01*
X75914085Y18678629D02*
X75799799Y18678629D01*
X75799799Y18678629D02*
X75742656Y18650058D01*
X75742656Y18650058D02*
X75685513Y18592915D01*
X75685513Y18592915D02*
X75656942Y18478629D01*
X75656942Y18478629D02*
X75656942Y18278629D01*
X75656942Y18278629D02*
X75685513Y18164343D01*
X75685513Y18164343D02*
X75742656Y18107200D01*
X75742656Y18107200D02*
X75799799Y18078629D01*
X75799799Y18078629D02*
X75914085Y18078629D01*
X75914085Y18078629D02*
X75971228Y18107200D01*
X75971228Y18107200D02*
X76028370Y18164343D01*
X76028370Y18164343D02*
X76056942Y18278629D01*
X76056942Y18278629D02*
X76056942Y18478629D01*
X76056942Y18478629D02*
X76028370Y18592915D01*
X76028370Y18592915D02*
X75971228Y18650058D01*
X75971228Y18650058D02*
X75914085Y18678629D01*
X75114085Y18078629D02*
X75399799Y18078629D01*
X75399799Y18078629D02*
X75399799Y18678629D01*
X74942657Y18250058D02*
X74656943Y18250058D01*
X74999800Y18078629D02*
X74799800Y18678629D01*
X74799800Y18678629D02*
X74599800Y18078629D01*
X74399799Y18078629D02*
X74399799Y18678629D01*
X74399799Y18678629D02*
X74056942Y18078629D01*
X74056942Y18078629D02*
X74056942Y18678629D01*
X73771228Y18078629D02*
X73771228Y18678629D01*
X73771228Y18678629D02*
X73628371Y18678629D01*
X73628371Y18678629D02*
X73542657Y18650058D01*
X73542657Y18650058D02*
X73485514Y18592915D01*
X73485514Y18592915D02*
X73456943Y18535772D01*
X73456943Y18535772D02*
X73428371Y18421486D01*
X73428371Y18421486D02*
X73428371Y18335772D01*
X73428371Y18335772D02*
X73456943Y18221486D01*
X73456943Y18221486D02*
X73485514Y18164343D01*
X73485514Y18164343D02*
X73542657Y18107200D01*
X73542657Y18107200D02*
X73628371Y18078629D01*
X73628371Y18078629D02*
X73771228Y18078629D01*
X74677068Y44122153D02*
X74562782Y44084058D01*
X74562782Y44084058D02*
X74524687Y44045962D01*
X74524687Y44045962D02*
X74486591Y43969772D01*
X74486591Y43969772D02*
X74486591Y43855486D01*
X74486591Y43855486D02*
X74524687Y43779296D01*
X74524687Y43779296D02*
X74562782Y43741200D01*
X74562782Y43741200D02*
X74638972Y43703105D01*
X74638972Y43703105D02*
X74943734Y43703105D01*
X74943734Y43703105D02*
X74943734Y44503105D01*
X74943734Y44503105D02*
X74677068Y44503105D01*
X74677068Y44503105D02*
X74600877Y44465010D01*
X74600877Y44465010D02*
X74562782Y44426915D01*
X74562782Y44426915D02*
X74524687Y44350724D01*
X74524687Y44350724D02*
X74524687Y44274534D01*
X74524687Y44274534D02*
X74562782Y44198343D01*
X74562782Y44198343D02*
X74600877Y44160248D01*
X74600877Y44160248D02*
X74677068Y44122153D01*
X74677068Y44122153D02*
X74943734Y44122153D01*
X73991353Y44503105D02*
X73838972Y44503105D01*
X73838972Y44503105D02*
X73762782Y44465010D01*
X73762782Y44465010D02*
X73686591Y44388820D01*
X73686591Y44388820D02*
X73648496Y44236439D01*
X73648496Y44236439D02*
X73648496Y43969772D01*
X73648496Y43969772D02*
X73686591Y43817391D01*
X73686591Y43817391D02*
X73762782Y43741200D01*
X73762782Y43741200D02*
X73838972Y43703105D01*
X73838972Y43703105D02*
X73991353Y43703105D01*
X73991353Y43703105D02*
X74067544Y43741200D01*
X74067544Y43741200D02*
X74143734Y43817391D01*
X74143734Y43817391D02*
X74181830Y43969772D01*
X74181830Y43969772D02*
X74181830Y44236439D01*
X74181830Y44236439D02*
X74143734Y44388820D01*
X74143734Y44388820D02*
X74067544Y44465010D01*
X74067544Y44465010D02*
X73991353Y44503105D01*
X73343735Y43931677D02*
X72962782Y43931677D01*
X73419925Y43703105D02*
X73153258Y44503105D01*
X73153258Y44503105D02*
X72886592Y43703105D01*
X72162782Y43703105D02*
X72429449Y44084058D01*
X72619925Y43703105D02*
X72619925Y44503105D01*
X72619925Y44503105D02*
X72315163Y44503105D01*
X72315163Y44503105D02*
X72238973Y44465010D01*
X72238973Y44465010D02*
X72200878Y44426915D01*
X72200878Y44426915D02*
X72162782Y44350724D01*
X72162782Y44350724D02*
X72162782Y44236439D01*
X72162782Y44236439D02*
X72200878Y44160248D01*
X72200878Y44160248D02*
X72238973Y44122153D01*
X72238973Y44122153D02*
X72315163Y44084058D01*
X72315163Y44084058D02*
X72619925Y44084058D01*
X71819925Y43703105D02*
X71819925Y44503105D01*
X71819925Y44503105D02*
X71629449Y44503105D01*
X71629449Y44503105D02*
X71515163Y44465010D01*
X71515163Y44465010D02*
X71438973Y44388820D01*
X71438973Y44388820D02*
X71400878Y44312629D01*
X71400878Y44312629D02*
X71362782Y44160248D01*
X71362782Y44160248D02*
X71362782Y44045962D01*
X71362782Y44045962D02*
X71400878Y43893581D01*
X71400878Y43893581D02*
X71438973Y43817391D01*
X71438973Y43817391D02*
X71515163Y43741200D01*
X71515163Y43741200D02*
X71629449Y43703105D01*
X71629449Y43703105D02*
X71819925Y43703105D01*
X71019925Y43703105D02*
X71019925Y44503105D01*
X71019925Y44122153D02*
X70562782Y44122153D01*
X70562782Y43703105D02*
X70562782Y44503105D01*
X70029449Y44503105D02*
X69877068Y44503105D01*
X69877068Y44503105D02*
X69800878Y44465010D01*
X69800878Y44465010D02*
X69724687Y44388820D01*
X69724687Y44388820D02*
X69686592Y44236439D01*
X69686592Y44236439D02*
X69686592Y43969772D01*
X69686592Y43969772D02*
X69724687Y43817391D01*
X69724687Y43817391D02*
X69800878Y43741200D01*
X69800878Y43741200D02*
X69877068Y43703105D01*
X69877068Y43703105D02*
X70029449Y43703105D01*
X70029449Y43703105D02*
X70105640Y43741200D01*
X70105640Y43741200D02*
X70181830Y43817391D01*
X70181830Y43817391D02*
X70219926Y43969772D01*
X70219926Y43969772D02*
X70219926Y44236439D01*
X70219926Y44236439D02*
X70181830Y44388820D01*
X70181830Y44388820D02*
X70105640Y44465010D01*
X70105640Y44465010D02*
X70029449Y44503105D01*
X69343735Y44503105D02*
X69343735Y43855486D01*
X69343735Y43855486D02*
X69305640Y43779296D01*
X69305640Y43779296D02*
X69267545Y43741200D01*
X69267545Y43741200D02*
X69191354Y43703105D01*
X69191354Y43703105D02*
X69038973Y43703105D01*
X69038973Y43703105D02*
X68962783Y43741200D01*
X68962783Y43741200D02*
X68924688Y43779296D01*
X68924688Y43779296D02*
X68886592Y43855486D01*
X68886592Y43855486D02*
X68886592Y44503105D01*
X68543736Y43741200D02*
X68429450Y43703105D01*
X68429450Y43703105D02*
X68238974Y43703105D01*
X68238974Y43703105D02*
X68162783Y43741200D01*
X68162783Y43741200D02*
X68124688Y43779296D01*
X68124688Y43779296D02*
X68086593Y43855486D01*
X68086593Y43855486D02*
X68086593Y43931677D01*
X68086593Y43931677D02*
X68124688Y44007867D01*
X68124688Y44007867D02*
X68162783Y44045962D01*
X68162783Y44045962D02*
X68238974Y44084058D01*
X68238974Y44084058D02*
X68391355Y44122153D01*
X68391355Y44122153D02*
X68467545Y44160248D01*
X68467545Y44160248D02*
X68505640Y44198343D01*
X68505640Y44198343D02*
X68543736Y44274534D01*
X68543736Y44274534D02*
X68543736Y44350724D01*
X68543736Y44350724D02*
X68505640Y44426915D01*
X68505640Y44426915D02*
X68467545Y44465010D01*
X68467545Y44465010D02*
X68391355Y44503105D01*
X68391355Y44503105D02*
X68200878Y44503105D01*
X68200878Y44503105D02*
X68086593Y44465010D01*
X67743735Y44122153D02*
X67477069Y44122153D01*
X67362783Y43703105D02*
X67743735Y43703105D01*
X67743735Y43703105D02*
X67743735Y44503105D01*
X67743735Y44503105D02*
X67362783Y44503105D01*
X66410401Y43703105D02*
X66410401Y44503105D01*
X66029449Y43703105D02*
X66029449Y44503105D01*
X66029449Y44503105D02*
X65572306Y43703105D01*
X65572306Y43703105D02*
X65572306Y44503105D01*
X64924688Y44122153D02*
X65191354Y44122153D01*
X65191354Y43703105D02*
X65191354Y44503105D01*
X65191354Y44503105D02*
X64810402Y44503105D01*
X64353259Y44503105D02*
X64200878Y44503105D01*
X64200878Y44503105D02*
X64124688Y44465010D01*
X64124688Y44465010D02*
X64048497Y44388820D01*
X64048497Y44388820D02*
X64010402Y44236439D01*
X64010402Y44236439D02*
X64010402Y43969772D01*
X64010402Y43969772D02*
X64048497Y43817391D01*
X64048497Y43817391D02*
X64124688Y43741200D01*
X64124688Y43741200D02*
X64200878Y43703105D01*
X64200878Y43703105D02*
X64353259Y43703105D01*
X64353259Y43703105D02*
X64429450Y43741200D01*
X64429450Y43741200D02*
X64505640Y43817391D01*
X64505640Y43817391D02*
X64543736Y43969772D01*
X64543736Y43969772D02*
X64543736Y44236439D01*
X64543736Y44236439D02*
X64505640Y44388820D01*
X64505640Y44388820D02*
X64429450Y44465010D01*
X64429450Y44465010D02*
X64353259Y44503105D01*
X75120855Y38624738D02*
X74739902Y38624738D01*
X75197045Y38396166D02*
X74930378Y39196166D01*
X74930378Y39196166D02*
X74663712Y38396166D01*
X74435141Y38434261D02*
X74320855Y38396166D01*
X74320855Y38396166D02*
X74130379Y38396166D01*
X74130379Y38396166D02*
X74054188Y38434261D01*
X74054188Y38434261D02*
X74016093Y38472357D01*
X74016093Y38472357D02*
X73977998Y38548547D01*
X73977998Y38548547D02*
X73977998Y38624738D01*
X73977998Y38624738D02*
X74016093Y38700928D01*
X74016093Y38700928D02*
X74054188Y38739023D01*
X74054188Y38739023D02*
X74130379Y38777119D01*
X74130379Y38777119D02*
X74282760Y38815214D01*
X74282760Y38815214D02*
X74358950Y38853309D01*
X74358950Y38853309D02*
X74397045Y38891404D01*
X74397045Y38891404D02*
X74435141Y38967595D01*
X74435141Y38967595D02*
X74435141Y39043785D01*
X74435141Y39043785D02*
X74397045Y39119976D01*
X74397045Y39119976D02*
X74358950Y39158071D01*
X74358950Y39158071D02*
X74282760Y39196166D01*
X74282760Y39196166D02*
X74092283Y39196166D01*
X74092283Y39196166D02*
X73977998Y39158071D01*
X73673236Y38434261D02*
X73558950Y38396166D01*
X73558950Y38396166D02*
X73368474Y38396166D01*
X73368474Y38396166D02*
X73292283Y38434261D01*
X73292283Y38434261D02*
X73254188Y38472357D01*
X73254188Y38472357D02*
X73216093Y38548547D01*
X73216093Y38548547D02*
X73216093Y38624738D01*
X73216093Y38624738D02*
X73254188Y38700928D01*
X73254188Y38700928D02*
X73292283Y38739023D01*
X73292283Y38739023D02*
X73368474Y38777119D01*
X73368474Y38777119D02*
X73520855Y38815214D01*
X73520855Y38815214D02*
X73597045Y38853309D01*
X73597045Y38853309D02*
X73635140Y38891404D01*
X73635140Y38891404D02*
X73673236Y38967595D01*
X73673236Y38967595D02*
X73673236Y39043785D01*
X73673236Y39043785D02*
X73635140Y39119976D01*
X73635140Y39119976D02*
X73597045Y39158071D01*
X73597045Y39158071D02*
X73520855Y39196166D01*
X73520855Y39196166D02*
X73330378Y39196166D01*
X73330378Y39196166D02*
X73216093Y39158071D01*
X72873235Y38815214D02*
X72606569Y38815214D01*
X72492283Y38396166D02*
X72873235Y38396166D01*
X72873235Y38396166D02*
X72873235Y39196166D01*
X72873235Y39196166D02*
X72492283Y39196166D01*
X72149425Y38396166D02*
X72149425Y39196166D01*
X72149425Y39196166D02*
X71882759Y38624738D01*
X71882759Y38624738D02*
X71616092Y39196166D01*
X71616092Y39196166D02*
X71616092Y38396166D01*
X70968473Y38815214D02*
X70854187Y38777119D01*
X70854187Y38777119D02*
X70816092Y38739023D01*
X70816092Y38739023D02*
X70777996Y38662833D01*
X70777996Y38662833D02*
X70777996Y38548547D01*
X70777996Y38548547D02*
X70816092Y38472357D01*
X70816092Y38472357D02*
X70854187Y38434261D01*
X70854187Y38434261D02*
X70930377Y38396166D01*
X70930377Y38396166D02*
X71235139Y38396166D01*
X71235139Y38396166D02*
X71235139Y39196166D01*
X71235139Y39196166D02*
X70968473Y39196166D01*
X70968473Y39196166D02*
X70892282Y39158071D01*
X70892282Y39158071D02*
X70854187Y39119976D01*
X70854187Y39119976D02*
X70816092Y39043785D01*
X70816092Y39043785D02*
X70816092Y38967595D01*
X70816092Y38967595D02*
X70854187Y38891404D01*
X70854187Y38891404D02*
X70892282Y38853309D01*
X70892282Y38853309D02*
X70968473Y38815214D01*
X70968473Y38815214D02*
X71235139Y38815214D01*
X70054187Y38396166D02*
X70435139Y38396166D01*
X70435139Y38396166D02*
X70435139Y39196166D01*
X69635139Y38777119D02*
X69635139Y38396166D01*
X69901806Y39196166D02*
X69635139Y38777119D01*
X69635139Y38777119D02*
X69368473Y39196166D01*
X68530378Y38434261D02*
X68416092Y38396166D01*
X68416092Y38396166D02*
X68225616Y38396166D01*
X68225616Y38396166D02*
X68149425Y38434261D01*
X68149425Y38434261D02*
X68111330Y38472357D01*
X68111330Y38472357D02*
X68073235Y38548547D01*
X68073235Y38548547D02*
X68073235Y38624738D01*
X68073235Y38624738D02*
X68111330Y38700928D01*
X68111330Y38700928D02*
X68149425Y38739023D01*
X68149425Y38739023D02*
X68225616Y38777119D01*
X68225616Y38777119D02*
X68377997Y38815214D01*
X68377997Y38815214D02*
X68454187Y38853309D01*
X68454187Y38853309D02*
X68492282Y38891404D01*
X68492282Y38891404D02*
X68530378Y38967595D01*
X68530378Y38967595D02*
X68530378Y39043785D01*
X68530378Y39043785D02*
X68492282Y39119976D01*
X68492282Y39119976D02*
X68454187Y39158071D01*
X68454187Y39158071D02*
X68377997Y39196166D01*
X68377997Y39196166D02*
X68187520Y39196166D01*
X68187520Y39196166D02*
X68073235Y39158071D01*
X67844663Y39196166D02*
X67387520Y39196166D01*
X67616092Y38396166D02*
X67616092Y39196166D01*
X67120853Y38396166D02*
X67120853Y39196166D01*
X66282758Y38472357D02*
X66320854Y38434261D01*
X66320854Y38434261D02*
X66435139Y38396166D01*
X66435139Y38396166D02*
X66511330Y38396166D01*
X66511330Y38396166D02*
X66625616Y38434261D01*
X66625616Y38434261D02*
X66701806Y38510452D01*
X66701806Y38510452D02*
X66739901Y38586642D01*
X66739901Y38586642D02*
X66777997Y38739023D01*
X66777997Y38739023D02*
X66777997Y38853309D01*
X66777997Y38853309D02*
X66739901Y39005690D01*
X66739901Y39005690D02*
X66701806Y39081881D01*
X66701806Y39081881D02*
X66625616Y39158071D01*
X66625616Y39158071D02*
X66511330Y39196166D01*
X66511330Y39196166D02*
X66435139Y39196166D01*
X66435139Y39196166D02*
X66320854Y39158071D01*
X66320854Y39158071D02*
X66282758Y39119976D01*
X65939901Y38396166D02*
X65939901Y39196166D01*
X65482758Y38396166D02*
X65825616Y38853309D01*
X65482758Y39196166D02*
X65939901Y38739023D01*
X65139901Y38815214D02*
X64873235Y38815214D01*
X64758949Y38396166D02*
X65139901Y38396166D01*
X65139901Y38396166D02*
X65139901Y39196166D01*
X65139901Y39196166D02*
X64758949Y39196166D01*
X63958948Y38396166D02*
X64225615Y38777119D01*
X64416091Y38396166D02*
X64416091Y39196166D01*
X64416091Y39196166D02*
X64111329Y39196166D01*
X64111329Y39196166D02*
X64035139Y39158071D01*
X64035139Y39158071D02*
X63997044Y39119976D01*
X63997044Y39119976D02*
X63958948Y39043785D01*
X63958948Y39043785D02*
X63958948Y38929500D01*
X63958948Y38929500D02*
X63997044Y38853309D01*
X63997044Y38853309D02*
X64035139Y38815214D01*
X64035139Y38815214D02*
X64111329Y38777119D01*
X64111329Y38777119D02*
X64416091Y38777119D01*
X92011013Y30499449D02*
X91957139Y30391700D01*
X91957139Y30391700D02*
X91957139Y30337825D01*
X91957139Y30337825D02*
X91984076Y30257013D01*
X91984076Y30257013D02*
X92064888Y30176201D01*
X92064888Y30176201D02*
X92145700Y30149263D01*
X92145700Y30149263D02*
X92199575Y30149263D01*
X92199575Y30149263D02*
X92280387Y30176201D01*
X92280387Y30176201D02*
X92495887Y30391700D01*
X92495887Y30391700D02*
X91930201Y30957385D01*
X91930201Y30957385D02*
X91741639Y30768823D01*
X91741639Y30768823D02*
X91714702Y30688011D01*
X91714702Y30688011D02*
X91714702Y30634136D01*
X91714702Y30634136D02*
X91741639Y30553324D01*
X91741639Y30553324D02*
X91795514Y30499449D01*
X91795514Y30499449D02*
X91876326Y30472512D01*
X91876326Y30472512D02*
X91930201Y30472512D01*
X91930201Y30472512D02*
X92011013Y30499449D01*
X92011013Y30499449D02*
X92199575Y30688011D01*
X90664143Y29637452D02*
X90691081Y29718265D01*
X90691081Y29718265D02*
X90771893Y29799077D01*
X90771893Y29799077D02*
X90879642Y29852952D01*
X90879642Y29852952D02*
X90987392Y29852952D01*
X90987392Y29852952D02*
X91068204Y29826014D01*
X91068204Y29826014D02*
X91202891Y29745202D01*
X91202891Y29745202D02*
X91283703Y29664390D01*
X91283703Y29664390D02*
X91364516Y29529703D01*
X91364516Y29529703D02*
X91391453Y29448891D01*
X91391453Y29448891D02*
X91391453Y29341141D01*
X91391453Y29341141D02*
X91337578Y29233391D01*
X91337578Y29233391D02*
X91283703Y29179517D01*
X91283703Y29179517D02*
X91175954Y29125642D01*
X91175954Y29125642D02*
X91122079Y29125642D01*
X91122079Y29125642D02*
X90933517Y29314204D01*
X90933517Y29314204D02*
X91041267Y29421953D01*
X90179270Y28075083D02*
X90098458Y28533019D01*
X90502519Y28398332D02*
X89936833Y28964017D01*
X89936833Y28964017D02*
X89721334Y28748518D01*
X89721334Y28748518D02*
X89694397Y28667706D01*
X89694397Y28667706D02*
X89694397Y28613831D01*
X89694397Y28613831D02*
X89721334Y28533019D01*
X89721334Y28533019D02*
X89802146Y28452207D01*
X89802146Y28452207D02*
X89882958Y28425269D01*
X89882958Y28425269D02*
X89936833Y28425269D01*
X89936833Y28425269D02*
X90017645Y28452207D01*
X90017645Y28452207D02*
X90233145Y28667706D01*
X89128711Y27132274D02*
X89182586Y27132274D01*
X89182586Y27132274D02*
X89290335Y27186149D01*
X89290335Y27186149D02*
X89344210Y27240023D01*
X89344210Y27240023D02*
X89398085Y27347773D01*
X89398085Y27347773D02*
X89398085Y27455523D01*
X89398085Y27455523D02*
X89371148Y27536335D01*
X89371148Y27536335D02*
X89290335Y27671022D01*
X89290335Y27671022D02*
X89209523Y27751834D01*
X89209523Y27751834D02*
X89074836Y27832646D01*
X89074836Y27832646D02*
X88994024Y27859584D01*
X88994024Y27859584D02*
X88886274Y27859584D01*
X88886274Y27859584D02*
X88778525Y27805709D01*
X88778525Y27805709D02*
X88724650Y27751834D01*
X88724650Y27751834D02*
X88670775Y27644084D01*
X88670775Y27644084D02*
X88670775Y27590210D01*
X88509151Y26404964D02*
X87943465Y26970649D01*
X87943465Y26970649D02*
X87808778Y26835962D01*
X87808778Y26835962D02*
X87754903Y26728213D01*
X87754903Y26728213D02*
X87754903Y26620463D01*
X87754903Y26620463D02*
X87781841Y26539651D01*
X87781841Y26539651D02*
X87862653Y26404964D01*
X87862653Y26404964D02*
X87943465Y26324152D01*
X87943465Y26324152D02*
X88078152Y26243339D01*
X88078152Y26243339D02*
X88158964Y26216402D01*
X88158964Y26216402D02*
X88266714Y26216402D01*
X88266714Y26216402D02*
X88374464Y26270277D01*
X88374464Y26270277D02*
X88509151Y26404964D01*
X87000656Y26027840D02*
X86650470Y25677654D01*
X86650470Y25677654D02*
X87054531Y25650716D01*
X87054531Y25650716D02*
X86973719Y25569904D01*
X86973719Y25569904D02*
X86946781Y25489092D01*
X86946781Y25489092D02*
X86946781Y25435217D01*
X86946781Y25435217D02*
X86973719Y25354405D01*
X86973719Y25354405D02*
X87108406Y25219718D01*
X87108406Y25219718D02*
X87189218Y25192781D01*
X87189218Y25192781D02*
X87243093Y25192781D01*
X87243093Y25192781D02*
X87323905Y25219718D01*
X87323905Y25219718D02*
X87485529Y25381342D01*
X87485529Y25381342D02*
X87512467Y25462155D01*
X87512467Y25462155D02*
X87512467Y25516029D01*
X80029449Y31532343D02*
X80124687Y31579962D01*
X80124687Y31579962D02*
X80219925Y31675200D01*
X80219925Y31675200D02*
X80362782Y31818058D01*
X80362782Y31818058D02*
X80458020Y31865677D01*
X80458020Y31865677D02*
X80553258Y31865677D01*
X80505639Y31627581D02*
X80600877Y31675200D01*
X80600877Y31675200D02*
X80696115Y31770439D01*
X80696115Y31770439D02*
X80743734Y31960915D01*
X80743734Y31960915D02*
X80743734Y32294248D01*
X80743734Y32294248D02*
X80696115Y32484724D01*
X80696115Y32484724D02*
X80600877Y32579962D01*
X80600877Y32579962D02*
X80505639Y32627581D01*
X80505639Y32627581D02*
X80315163Y32627581D01*
X80315163Y32627581D02*
X80219925Y32579962D01*
X80219925Y32579962D02*
X80124687Y32484724D01*
X80124687Y32484724D02*
X80077068Y32294248D01*
X80077068Y32294248D02*
X80077068Y31960915D01*
X80077068Y31960915D02*
X80124687Y31770439D01*
X80124687Y31770439D02*
X80219925Y31675200D01*
X80219925Y31675200D02*
X80315163Y31627581D01*
X80315163Y31627581D02*
X80505639Y31627581D01*
X79077068Y31722820D02*
X79124687Y31675200D01*
X79124687Y31675200D02*
X79267544Y31627581D01*
X79267544Y31627581D02*
X79362782Y31627581D01*
X79362782Y31627581D02*
X79505639Y31675200D01*
X79505639Y31675200D02*
X79600877Y31770439D01*
X79600877Y31770439D02*
X79648496Y31865677D01*
X79648496Y31865677D02*
X79696115Y32056153D01*
X79696115Y32056153D02*
X79696115Y32199010D01*
X79696115Y32199010D02*
X79648496Y32389486D01*
X79648496Y32389486D02*
X79600877Y32484724D01*
X79600877Y32484724D02*
X79505639Y32579962D01*
X79505639Y32579962D02*
X79362782Y32627581D01*
X79362782Y32627581D02*
X79267544Y32627581D01*
X79267544Y32627581D02*
X79124687Y32579962D01*
X79124687Y32579962D02*
X79077068Y32532343D01*
D11*
G36*
X70962247Y36594838D02*
G01*
X70165771Y36594838D01*
X70111427Y35378264D01*
X69552478Y36594838D01*
X68758688Y36594838D01*
X69174634Y34594000D01*
X69668981Y34594000D01*
X69351466Y36121495D01*
X70052565Y34594000D01*
X70500262Y34594000D01*
X70564864Y36121495D01*
X70882380Y34594000D01*
X71378193Y34594000D01*
X70962247Y36594838D01*
G37*
G36*
X67896670Y36064883D02*
G01*
X68062102Y36023958D01*
X68212259Y35957160D01*
X68349581Y35863819D01*
X68470148Y35748022D01*
X68564771Y35619396D01*
X68635373Y35476415D01*
X68682484Y35316715D01*
X68700965Y35172171D01*
X68694624Y35045464D01*
X68666029Y34933076D01*
X68615890Y34832068D01*
X68543022Y34740302D01*
X68451034Y34666135D01*
X68337597Y34610944D01*
X68198127Y34575513D01*
X68026692Y34562737D01*
X67837042Y34576947D01*
X67668505Y34617903D01*
X67517615Y34684296D01*
X67381647Y34776450D01*
X67262274Y34891534D01*
X67168237Y35020111D01*
X67097761Y35163787D01*
X67050454Y35325019D01*
X67033970Y35454592D01*
X67580372Y35454592D01*
X67596459Y35327095D01*
X67633981Y35194091D01*
X67680338Y35097847D01*
X67733723Y35030340D01*
X67801209Y34977923D01*
X67871309Y34947866D01*
X67946092Y34937894D01*
X68018359Y34948741D01*
X68074942Y34979577D01*
X68119749Y35031684D01*
X68145253Y35097062D01*
X68153003Y35190203D01*
X68136235Y35321600D01*
X68100377Y35446752D01*
X68054119Y35540563D01*
X67998971Y35609318D01*
X67929793Y35663001D01*
X67858437Y35693690D01*
X67782816Y35703840D01*
X67713123Y35693164D01*
X67657954Y35662629D01*
X67613678Y35610661D01*
X67588240Y35545840D01*
X67580372Y35454592D01*
X67033970Y35454592D01*
X67031334Y35475313D01*
X67038251Y35606539D01*
X67068444Y35722492D01*
X67121162Y35826328D01*
X67193090Y35912909D01*
X67284189Y35981678D01*
X67397736Y36033404D01*
X67538585Y36066873D01*
X67712840Y36078997D01*
X67896670Y36064883D01*
G37*
G36*
X65682572Y35904608D02*
G01*
X65752899Y35981120D01*
X65839009Y36035400D01*
X65938880Y36067544D01*
X66060538Y36078997D01*
X66186770Y36067215D01*
X66305807Y36032192D01*
X66419733Y35973163D01*
X66530094Y35887755D01*
X66622192Y35786699D01*
X66700527Y35663464D01*
X66764824Y35514628D01*
X66813782Y35335888D01*
X66837161Y35171750D01*
X66836775Y35027892D01*
X66815441Y34900971D01*
X66774704Y34788051D01*
X66725221Y34707396D01*
X66663007Y34645892D01*
X66586685Y34601169D01*
X66493282Y34572877D01*
X66378542Y34562737D01*
X66283719Y34569703D01*
X66192413Y34590465D01*
X66103646Y34625264D01*
X66004925Y34688266D01*
X65870272Y34808934D01*
X65914969Y34594000D01*
X65405845Y34594000D01*
X65230053Y35439620D01*
X65784955Y35439620D01*
X65799076Y35325141D01*
X65833797Y35202102D01*
X65876415Y35113872D01*
X65925227Y35052689D01*
X65986850Y35005170D01*
X66049909Y34978086D01*
X66116225Y34969158D01*
X66176581Y34978599D01*
X66224381Y35005668D01*
X66262771Y35051956D01*
X66284217Y35109606D01*
X66290278Y35193235D01*
X66274616Y35312807D01*
X66240134Y35437453D01*
X66199410Y35524925D01*
X66154205Y35583917D01*
X66096498Y35630190D01*
X66038463Y35656249D01*
X65978350Y35664761D01*
X65910850Y35654931D01*
X65858270Y35627123D01*
X65816905Y35580497D01*
X65792798Y35521809D01*
X65784955Y35439620D01*
X65230053Y35439620D01*
X64989899Y36594838D01*
X65539079Y36594838D01*
X65682572Y35904608D01*
G37*
G36*
X63538486Y34594000D02*
G01*
X64046267Y34594000D01*
X63996808Y34831771D01*
X64096984Y34739067D01*
X64187324Y34671332D01*
X64269138Y34624531D01*
X64356782Y34590912D01*
X64455084Y34570014D01*
X64565893Y34562737D01*
X64677193Y34572594D01*
X64765230Y34599760D01*
X64834880Y34642201D01*
X64889515Y34700124D01*
X64926122Y34769662D01*
X64947279Y34859291D01*
X64950032Y34974854D01*
X64929205Y35123397D01*
X64736986Y36047734D01*
X64190370Y36047734D01*
X64355967Y35251380D01*
X64367982Y35159532D01*
X64363110Y35097980D01*
X64346808Y35057696D01*
X64317380Y35026876D01*
X64276362Y35007544D01*
X64219679Y35000421D01*
X64157709Y35008668D01*
X64099786Y35033498D01*
X64044191Y35076746D01*
X64000886Y35133093D01*
X63960500Y35220917D01*
X63924878Y35350909D01*
X63780042Y36047734D01*
X63236235Y36047734D01*
X63538486Y34594000D01*
G37*
G36*
X70404616Y32620656D02*
G01*
X69908314Y32456159D01*
X69982754Y32309179D01*
X70065309Y32183318D01*
X70155732Y32076361D01*
X70258815Y31982305D01*
X70369554Y31905966D01*
X70488757Y31846285D01*
X70615417Y31804734D01*
X70764103Y31778183D01*
X70938531Y31768737D01*
X71150788Y31780981D01*
X71315101Y31813961D01*
X71440816Y31863259D01*
X71524063Y31917218D01*
X71598269Y31988899D01*
X71664056Y32080641D01*
X71721207Y32195796D01*
X71757077Y32313655D01*
X71774371Y32451711D01*
X71770456Y32614029D01*
X71741479Y32805182D01*
X71688885Y33003172D01*
X71620251Y33175480D01*
X71536578Y33325153D01*
X71438181Y33454721D01*
X71324678Y33566121D01*
X71195261Y33660310D01*
X71053741Y33733928D01*
X70898453Y33787493D01*
X70727281Y33820635D01*
X70537728Y33832101D01*
X70348931Y33820621D01*
X70198800Y33789272D01*
X70080259Y33741613D01*
X69987449Y33679571D01*
X69909833Y33597812D01*
X69847280Y33495279D01*
X69800077Y33368084D01*
X69770073Y33211114D01*
X70329877Y33089603D01*
X70343514Y33174484D01*
X70360896Y33223448D01*
X70404521Y33286635D01*
X70462379Y33332746D01*
X70532528Y33360974D01*
X70618939Y33370970D01*
X70717688Y33360484D01*
X70807635Y33329601D01*
X70891028Y33277667D01*
X70969305Y33202077D01*
X71030744Y33112530D01*
X71086409Y32984874D01*
X71134047Y32808601D01*
X71162469Y32630420D01*
X71166844Y32502750D01*
X71154289Y32413673D01*
X71129895Y32353088D01*
X71087971Y32300464D01*
X71033924Y32262585D01*
X70965153Y32238568D01*
X70877470Y32229868D01*
X70765566Y32241704D01*
X70672472Y32275292D01*
X70594148Y32329885D01*
X70527983Y32401927D01*
X70464666Y32497335D01*
X70404616Y32620656D01*
G37*
G36*
X68870648Y33279048D02*
G01*
X69008768Y33261794D01*
X69136990Y33232244D01*
X69228098Y33196459D01*
X69335601Y33130888D01*
X69416531Y33058095D01*
X69482220Y32968480D01*
X69546835Y32839498D01*
X69038321Y32784788D01*
X68981526Y32867684D01*
X68927435Y32913015D01*
X68842947Y32944553D01*
X68717997Y32956735D01*
X68649584Y32950794D01*
X68606614Y32935970D01*
X68581099Y32914969D01*
X68566506Y32885134D01*
X68561304Y32838991D01*
X68569863Y32769156D01*
X68776127Y32702966D01*
X69191339Y32614917D01*
X69366156Y32569603D01*
X69489904Y32516013D01*
X69574312Y32456647D01*
X69642699Y32379734D01*
X69692967Y32289991D01*
X69725621Y32185049D01*
X69734989Y32097551D01*
X69725908Y32020698D01*
X69699696Y31951792D01*
X69655645Y31888783D01*
X69598768Y31839911D01*
X69523140Y31802569D01*
X69423980Y31777875D01*
X69295143Y31768737D01*
X69168865Y31775785D01*
X69053303Y31796247D01*
X68947096Y31829432D01*
X68833387Y31887096D01*
X68703098Y31981107D01*
X68703953Y31887073D01*
X68681971Y31800000D01*
X68171381Y31800000D01*
X68190260Y31886798D01*
X68196050Y31948378D01*
X68191941Y32011641D01*
X68175411Y32109090D01*
X68096657Y32487788D01*
X68628360Y32487788D01*
X68646556Y32400349D01*
X68675235Y32304585D01*
X68713845Y32234020D01*
X68768384Y32176517D01*
X68847323Y32125698D01*
X68936450Y32092245D01*
X69025621Y32081368D01*
X69103592Y32092944D01*
X69148719Y32122401D01*
X69172270Y32168010D01*
X69171556Y32228036D01*
X69149928Y32280262D01*
X69105122Y32329031D01*
X69035335Y32366924D01*
X68877121Y32416469D01*
X68628360Y32487788D01*
X68096657Y32487788D01*
X68042055Y32750349D01*
X68030204Y32854366D01*
X68037292Y32965649D01*
X68065429Y33069134D01*
X68110687Y33140039D01*
X68169235Y33191219D01*
X68242504Y33230312D01*
X68333558Y33256909D01*
X68488778Y33277007D01*
X68720561Y33284997D01*
X68870648Y33279048D01*
G37*
G36*
X67565293Y33253734D02*
G01*
X67056168Y33253734D01*
X67105628Y33016208D01*
X66996862Y33153274D01*
X66909989Y33227234D01*
X66814466Y33270304D01*
X66704825Y33284997D01*
X66626464Y33277188D01*
X66544446Y33252901D01*
X66457285Y33210014D01*
X66708000Y32813975D01*
X66792872Y32846275D01*
X66851737Y32855130D01*
X66918944Y32845318D01*
X66979711Y32815958D01*
X67036263Y32764638D01*
X67097230Y32672091D01*
X67159103Y32520467D01*
X67219445Y32287876D01*
X67320928Y31800000D01*
X67867543Y31800000D01*
X67565293Y33253734D01*
G37*
G36*
X65344515Y33110608D02*
G01*
X65414842Y33187120D01*
X65500952Y33241400D01*
X65600822Y33273544D01*
X65722480Y33284997D01*
X65848713Y33273215D01*
X65967750Y33238192D01*
X66081676Y33179163D01*
X66192037Y33093755D01*
X66284135Y32992699D01*
X66362470Y32869464D01*
X66426767Y32720628D01*
X66475725Y32541888D01*
X66499104Y32377750D01*
X66498718Y32233892D01*
X66477384Y32106971D01*
X66436646Y31994051D01*
X66387164Y31913396D01*
X66324949Y31851892D01*
X66248628Y31807169D01*
X66155225Y31778877D01*
X66040484Y31768737D01*
X65945662Y31775703D01*
X65854356Y31796465D01*
X65765589Y31831264D01*
X65666868Y31894266D01*
X65532215Y32014934D01*
X65576912Y31800000D01*
X65067787Y31800000D01*
X64891995Y32645620D01*
X65446898Y32645620D01*
X65461018Y32531141D01*
X65495740Y32408102D01*
X65538358Y32319872D01*
X65587170Y32258689D01*
X65648793Y32211170D01*
X65711852Y32184086D01*
X65778168Y32175158D01*
X65838524Y32184599D01*
X65886324Y32211668D01*
X65924713Y32257956D01*
X65946160Y32315606D01*
X65952221Y32399235D01*
X65936559Y32518807D01*
X65902077Y32643453D01*
X65861353Y32730925D01*
X65816147Y32789917D01*
X65758440Y32836190D01*
X65700406Y32862249D01*
X65640293Y32870761D01*
X65572793Y32860931D01*
X65520213Y32833123D01*
X65478848Y32786497D01*
X65454741Y32727809D01*
X65446898Y32645620D01*
X64891995Y32645620D01*
X64651842Y33800838D01*
X65201022Y33800838D01*
X65344515Y33110608D01*
G37*
D12*
G36*
X75065548Y22964553D02*
G01*
X75065548Y21951007D01*
X75055656Y21814902D01*
X75041559Y21772754D01*
X75023416Y21747858D01*
X74966630Y21724777D01*
X74875039Y21721846D01*
X74875039Y21663227D01*
X75497492Y21663227D01*
X75497492Y21721846D01*
X75392345Y21730639D01*
X75336291Y21764710D01*
X75311928Y21835052D01*
X75306799Y21951739D01*
X75306799Y22435523D01*
X75311012Y22623468D01*
X75324934Y22724951D01*
X75352228Y22765618D01*
X75399306Y22774044D01*
X75440156Y22768915D01*
X75494561Y22752062D01*
X75519840Y22809398D01*
X75134058Y22964553D01*
X75065548Y22964553D01*
G37*
G36*
X75186265Y23621078D02*
G01*
X75129133Y23610423D01*
X75082767Y23578946D01*
X75051589Y23532230D01*
X75041002Y23474532D01*
X75051410Y23418493D01*
X75082584Y23371035D01*
X75129048Y23338852D01*
X75186265Y23327987D01*
X75243325Y23338843D01*
X75289763Y23371035D01*
X75320937Y23418493D01*
X75331345Y23474532D01*
X75320799Y23532245D01*
X75289763Y23578946D01*
X75243272Y23610437D01*
X75186265Y23621078D01*
G37*
D13*
%TO.C,REF\u002A\u002A*%
X69537275Y23531069D02*
X69621095Y23086445D01*
X70239667Y22831449D01*
X70610707Y23083754D01*
X70684144Y23133494D01*
X70781499Y23198782D01*
X70865787Y23254546D01*
X70932631Y23297922D01*
X70977654Y23326047D01*
X70996478Y23336058D01*
X71008039Y23328939D01*
X71042596Y23299106D01*
X71094894Y23250148D01*
X71160500Y23186560D01*
X71234983Y23112837D01*
X71313913Y23033475D01*
X71392856Y22952969D01*
X71467384Y22875815D01*
X71533063Y22806507D01*
X71585463Y22749543D01*
X71620153Y22709416D01*
X71632701Y22690623D01*
X71629782Y22682549D01*
X71609571Y22646531D01*
X71572663Y22587256D01*
X71522050Y22509370D01*
X71460725Y22417519D01*
X71391679Y22316350D01*
X71353787Y22261174D01*
X71288606Y22165116D01*
X71232723Y22081283D01*
X71189117Y22014223D01*
X71160769Y21968481D01*
X71150657Y21948604D01*
X71150823Y21947503D01*
X71159743Y21922306D01*
X71180206Y21870853D01*
X71209360Y21799865D01*
X71244353Y21716065D01*
X71282332Y21626172D01*
X71320445Y21536909D01*
X71355839Y21454997D01*
X71385662Y21387157D01*
X71407061Y21340110D01*
X71417184Y21320578D01*
X71423174Y21318845D01*
X71459566Y21311031D01*
X71524427Y21298085D01*
X71612565Y21281021D01*
X71718787Y21260849D01*
X71837902Y21238582D01*
X71900683Y21226777D01*
X72015912Y21204252D01*
X72116662Y21183450D01*
X72197426Y21165565D01*
X72252698Y21151792D01*
X72276971Y21143326D01*
X72281331Y21134934D01*
X72288563Y21093928D01*
X72294246Y21025632D01*
X72298382Y20936471D01*
X72300977Y20832872D01*
X72302036Y20721260D01*
X72301561Y20608062D01*
X72299559Y20499704D01*
X72296033Y20402611D01*
X72290987Y20323210D01*
X72284427Y20267928D01*
X72276356Y20243190D01*
X72271458Y20240400D01*
X72234930Y20228431D01*
X72171565Y20212595D01*
X72088686Y20194626D01*
X71993618Y20176259D01*
X71961542Y20170409D01*
X71813393Y20143202D01*
X71696961Y20121337D01*
X71608209Y20103907D01*
X71543103Y20090004D01*
X71497606Y20078723D01*
X71467682Y20069157D01*
X71449294Y20060399D01*
X71438407Y20051543D01*
X71437142Y20050057D01*
X71419338Y20019069D01*
X71392994Y19962366D01*
X71360661Y19886601D01*
X71324893Y19798426D01*
X71288244Y19704493D01*
X71253266Y19611453D01*
X71222513Y19525959D01*
X71198538Y19454664D01*
X71183895Y19404218D01*
X71181136Y19381274D01*
X71182981Y19378297D01*
X71202075Y19349507D01*
X71237984Y19296405D01*
X71287378Y19223883D01*
X71346927Y19136833D01*
X71413303Y19040146D01*
X71431520Y19013544D01*
X71495577Y18918125D01*
X71550937Y18832788D01*
X71594439Y18762595D01*
X71622924Y18712606D01*
X71633232Y18687884D01*
X71631011Y18681384D01*
X71607858Y18649356D01*
X71562177Y18597055D01*
X71497241Y18528001D01*
X71416319Y18445714D01*
X71322685Y18353714D01*
X71269165Y18302219D01*
X71184542Y18222017D01*
X71110475Y18153322D01*
X71050941Y18099748D01*
X71009917Y18064915D01*
X70991381Y18052437D01*
X70978646Y18057062D01*
X70939436Y18078943D01*
X70882495Y18114727D01*
X70815250Y18159883D01*
X70767438Y18192835D01*
X70671985Y18258273D01*
X70570125Y18327772D01*
X70477088Y18390925D01*
X70294832Y18514200D01*
X70141841Y18431480D01*
X70105817Y18412387D01*
X70040303Y18379728D01*
X69989640Y18357181D01*
X69962564Y18348774D01*
X69953703Y18359570D01*
X69931699Y18400677D01*
X69899199Y18468451D01*
X69858010Y18558591D01*
X69809942Y18666795D01*
X69756802Y18788763D01*
X69700399Y18920192D01*
X69642542Y19056782D01*
X69585038Y19194233D01*
X69529697Y19328242D01*
X69478326Y19454509D01*
X69432735Y19568732D01*
X69394732Y19666610D01*
X69366124Y19743843D01*
X69348721Y19796129D01*
X69344331Y19819167D01*
X69344628Y19819840D01*
X69365077Y19841137D01*
X69407850Y19874492D01*
X69464117Y19912989D01*
X69481877Y19924744D01*
X69617014Y20036265D01*
X69728856Y20169094D01*
X69814755Y20317702D01*
X69872062Y20476560D01*
X69898131Y20640140D01*
X69890313Y20802912D01*
X69858644Y20947685D01*
X69801782Y21093876D01*
X69718888Y21224297D01*
X69605131Y21348187D01*
X69560433Y21387765D01*
X69415935Y21485277D01*
X69259838Y21550950D01*
X69096667Y21585370D01*
X68930943Y21589126D01*
X68767192Y21562806D01*
X68609936Y21506997D01*
X68463698Y21422286D01*
X68333004Y21309263D01*
X68222374Y21168513D01*
X68201105Y21133658D01*
X68128810Y20974345D01*
X68090415Y20808448D01*
X68084914Y20640263D01*
X68111301Y20474087D01*
X68168570Y20314216D01*
X68255717Y20164947D01*
X68371736Y20030577D01*
X68515622Y19915401D01*
X68520294Y19912298D01*
X68575964Y19873067D01*
X68617689Y19839714D01*
X68636746Y19819167D01*
X68634342Y19803059D01*
X68619391Y19756156D01*
X68592881Y19683461D01*
X68556620Y19589275D01*
X68512416Y19477902D01*
X68462076Y19353642D01*
X68407407Y19220798D01*
X68350218Y19083673D01*
X68292316Y18946568D01*
X68235510Y18813785D01*
X68181606Y18689626D01*
X68132412Y18578394D01*
X68089737Y18484391D01*
X68055387Y18411918D01*
X68031171Y18365278D01*
X68018897Y18348774D01*
X68008689Y18351009D01*
X67968586Y18367074D01*
X67909318Y18395241D01*
X67839619Y18431480D01*
X67686629Y18514200D01*
X67504373Y18390925D01*
X67450527Y18354421D01*
X67350374Y18286216D01*
X67250525Y18217902D01*
X67166211Y18159883D01*
X67119679Y18128264D01*
X67059200Y18088980D01*
X67014357Y18062088D01*
X66992455Y18052117D01*
X66983045Y18056350D01*
X66949031Y18082279D01*
X66896595Y18127930D01*
X66830301Y18188814D01*
X66754713Y18260439D01*
X66674396Y18338317D01*
X66593913Y18417955D01*
X66517829Y18494865D01*
X66450707Y18564555D01*
X66397112Y18622536D01*
X66361608Y18664316D01*
X66348759Y18685407D01*
X66349500Y18689419D01*
X66364793Y18722080D01*
X66397462Y18778588D01*
X66444350Y18853837D01*
X66502301Y18942725D01*
X66568157Y19040146D01*
X66586627Y19067018D01*
X66651482Y19161577D01*
X66708609Y19245173D01*
X66754678Y19312916D01*
X66786359Y19359914D01*
X66800324Y19381274D01*
X66800668Y19382189D01*
X66796546Y19408322D01*
X66780807Y19461260D01*
X66756004Y19534353D01*
X66724689Y19620948D01*
X66689417Y19714392D01*
X66652740Y19808035D01*
X66617212Y19895223D01*
X66585386Y19969305D01*
X66559816Y20023629D01*
X66543053Y20051543D01*
X66541374Y20053276D01*
X66529372Y20062044D01*
X66509103Y20070885D01*
X66476529Y20080708D01*
X66427616Y20092417D01*
X66358327Y20106920D01*
X66264625Y20125124D01*
X66142476Y20147934D01*
X65987842Y20176259D01*
X65955770Y20182220D01*
X65863893Y20200648D01*
X65786607Y20218108D01*
X65731236Y20232867D01*
X65705105Y20243190D01*
X65700733Y20251803D01*
X65693445Y20293174D01*
X65687669Y20361759D01*
X65683410Y20451132D01*
X65680673Y20554865D01*
X65679462Y20666535D01*
X65679782Y20779713D01*
X65681636Y20887974D01*
X65685030Y20984892D01*
X65689967Y21064041D01*
X65696452Y21118994D01*
X65704489Y21143326D01*
X65712696Y21146921D01*
X65753519Y21158252D01*
X65822524Y21174278D01*
X65914203Y21193805D01*
X66023050Y21215638D01*
X66143558Y21238582D01*
X66209357Y21250841D01*
X66322135Y21272099D01*
X66419207Y21290713D01*
X66495382Y21305672D01*
X66545469Y21315964D01*
X66564276Y21320578D01*
X66564983Y21321529D01*
X66576961Y21345690D01*
X66599794Y21396306D01*
X66630630Y21466662D01*
X66666613Y21550042D01*
X66704891Y21639730D01*
X66742609Y21729011D01*
X66776913Y21811168D01*
X66804949Y21879487D01*
X66823864Y21927252D01*
X66830803Y21947746D01*
X66827742Y21954957D01*
X66807372Y21989272D01*
X66770422Y22047030D01*
X66719860Y22123701D01*
X66658657Y22214752D01*
X66589781Y22315650D01*
X66551994Y22370907D01*
X66486782Y22467785D01*
X66430871Y22552807D01*
X66387241Y22621338D01*
X66358877Y22668740D01*
X66348759Y22690377D01*
X66355790Y22702113D01*
X66385197Y22737182D01*
X66433441Y22790255D01*
X66496093Y22856836D01*
X66568725Y22932426D01*
X66646908Y23012528D01*
X66726214Y23092646D01*
X66802213Y23168282D01*
X66870478Y23234938D01*
X66926580Y23288118D01*
X66966090Y23323324D01*
X66984579Y23336058D01*
X66994843Y23331107D01*
X67032530Y23308143D01*
X67093348Y23269062D01*
X67172913Y23216728D01*
X67266843Y23154004D01*
X67370754Y23083754D01*
X67741794Y22831449D01*
X68051080Y22958947D01*
X68360365Y23086445D01*
X68444186Y23531069D01*
X68528006Y23975693D01*
X69453454Y23975693D01*
X69537275Y23531069D01*
G36*
X69537275Y23531069D02*
G01*
X69621095Y23086445D01*
X70239667Y22831449D01*
X70610707Y23083754D01*
X70684144Y23133494D01*
X70781499Y23198782D01*
X70865787Y23254546D01*
X70932631Y23297922D01*
X70977654Y23326047D01*
X70996478Y23336058D01*
X71008039Y23328939D01*
X71042596Y23299106D01*
X71094894Y23250148D01*
X71160500Y23186560D01*
X71234983Y23112837D01*
X71313913Y23033475D01*
X71392856Y22952969D01*
X71467384Y22875815D01*
X71533063Y22806507D01*
X71585463Y22749543D01*
X71620153Y22709416D01*
X71632701Y22690623D01*
X71629782Y22682549D01*
X71609571Y22646531D01*
X71572663Y22587256D01*
X71522050Y22509370D01*
X71460725Y22417519D01*
X71391679Y22316350D01*
X71353787Y22261174D01*
X71288606Y22165116D01*
X71232723Y22081283D01*
X71189117Y22014223D01*
X71160769Y21968481D01*
X71150657Y21948604D01*
X71150823Y21947503D01*
X71159743Y21922306D01*
X71180206Y21870853D01*
X71209360Y21799865D01*
X71244353Y21716065D01*
X71282332Y21626172D01*
X71320445Y21536909D01*
X71355839Y21454997D01*
X71385662Y21387157D01*
X71407061Y21340110D01*
X71417184Y21320578D01*
X71423174Y21318845D01*
X71459566Y21311031D01*
X71524427Y21298085D01*
X71612565Y21281021D01*
X71718787Y21260849D01*
X71837902Y21238582D01*
X71900683Y21226777D01*
X72015912Y21204252D01*
X72116662Y21183450D01*
X72197426Y21165565D01*
X72252698Y21151792D01*
X72276971Y21143326D01*
X72281331Y21134934D01*
X72288563Y21093928D01*
X72294246Y21025632D01*
X72298382Y20936471D01*
X72300977Y20832872D01*
X72302036Y20721260D01*
X72301561Y20608062D01*
X72299559Y20499704D01*
X72296033Y20402611D01*
X72290987Y20323210D01*
X72284427Y20267928D01*
X72276356Y20243190D01*
X72271458Y20240400D01*
X72234930Y20228431D01*
X72171565Y20212595D01*
X72088686Y20194626D01*
X71993618Y20176259D01*
X71961542Y20170409D01*
X71813393Y20143202D01*
X71696961Y20121337D01*
X71608209Y20103907D01*
X71543103Y20090004D01*
X71497606Y20078723D01*
X71467682Y20069157D01*
X71449294Y20060399D01*
X71438407Y20051543D01*
X71437142Y20050057D01*
X71419338Y20019069D01*
X71392994Y19962366D01*
X71360661Y19886601D01*
X71324893Y19798426D01*
X71288244Y19704493D01*
X71253266Y19611453D01*
X71222513Y19525959D01*
X71198538Y19454664D01*
X71183895Y19404218D01*
X71181136Y19381274D01*
X71182981Y19378297D01*
X71202075Y19349507D01*
X71237984Y19296405D01*
X71287378Y19223883D01*
X71346927Y19136833D01*
X71413303Y19040146D01*
X71431520Y19013544D01*
X71495577Y18918125D01*
X71550937Y18832788D01*
X71594439Y18762595D01*
X71622924Y18712606D01*
X71633232Y18687884D01*
X71631011Y18681384D01*
X71607858Y18649356D01*
X71562177Y18597055D01*
X71497241Y18528001D01*
X71416319Y18445714D01*
X71322685Y18353714D01*
X71269165Y18302219D01*
X71184542Y18222017D01*
X71110475Y18153322D01*
X71050941Y18099748D01*
X71009917Y18064915D01*
X70991381Y18052437D01*
X70978646Y18057062D01*
X70939436Y18078943D01*
X70882495Y18114727D01*
X70815250Y18159883D01*
X70767438Y18192835D01*
X70671985Y18258273D01*
X70570125Y18327772D01*
X70477088Y18390925D01*
X70294832Y18514200D01*
X70141841Y18431480D01*
X70105817Y18412387D01*
X70040303Y18379728D01*
X69989640Y18357181D01*
X69962564Y18348774D01*
X69953703Y18359570D01*
X69931699Y18400677D01*
X69899199Y18468451D01*
X69858010Y18558591D01*
X69809942Y18666795D01*
X69756802Y18788763D01*
X69700399Y18920192D01*
X69642542Y19056782D01*
X69585038Y19194233D01*
X69529697Y19328242D01*
X69478326Y19454509D01*
X69432735Y19568732D01*
X69394732Y19666610D01*
X69366124Y19743843D01*
X69348721Y19796129D01*
X69344331Y19819167D01*
X69344628Y19819840D01*
X69365077Y19841137D01*
X69407850Y19874492D01*
X69464117Y19912989D01*
X69481877Y19924744D01*
X69617014Y20036265D01*
X69728856Y20169094D01*
X69814755Y20317702D01*
X69872062Y20476560D01*
X69898131Y20640140D01*
X69890313Y20802912D01*
X69858644Y20947685D01*
X69801782Y21093876D01*
X69718888Y21224297D01*
X69605131Y21348187D01*
X69560433Y21387765D01*
X69415935Y21485277D01*
X69259838Y21550950D01*
X69096667Y21585370D01*
X68930943Y21589126D01*
X68767192Y21562806D01*
X68609936Y21506997D01*
X68463698Y21422286D01*
X68333004Y21309263D01*
X68222374Y21168513D01*
X68201105Y21133658D01*
X68128810Y20974345D01*
X68090415Y20808448D01*
X68084914Y20640263D01*
X68111301Y20474087D01*
X68168570Y20314216D01*
X68255717Y20164947D01*
X68371736Y20030577D01*
X68515622Y19915401D01*
X68520294Y19912298D01*
X68575964Y19873067D01*
X68617689Y19839714D01*
X68636746Y19819167D01*
X68634342Y19803059D01*
X68619391Y19756156D01*
X68592881Y19683461D01*
X68556620Y19589275D01*
X68512416Y19477902D01*
X68462076Y19353642D01*
X68407407Y19220798D01*
X68350218Y19083673D01*
X68292316Y18946568D01*
X68235510Y18813785D01*
X68181606Y18689626D01*
X68132412Y18578394D01*
X68089737Y18484391D01*
X68055387Y18411918D01*
X68031171Y18365278D01*
X68018897Y18348774D01*
X68008689Y18351009D01*
X67968586Y18367074D01*
X67909318Y18395241D01*
X67839619Y18431480D01*
X67686629Y18514200D01*
X67504373Y18390925D01*
X67450527Y18354421D01*
X67350374Y18286216D01*
X67250525Y18217902D01*
X67166211Y18159883D01*
X67119679Y18128264D01*
X67059200Y18088980D01*
X67014357Y18062088D01*
X66992455Y18052117D01*
X66983045Y18056350D01*
X66949031Y18082279D01*
X66896595Y18127930D01*
X66830301Y18188814D01*
X66754713Y18260439D01*
X66674396Y18338317D01*
X66593913Y18417955D01*
X66517829Y18494865D01*
X66450707Y18564555D01*
X66397112Y18622536D01*
X66361608Y18664316D01*
X66348759Y18685407D01*
X66349500Y18689419D01*
X66364793Y18722080D01*
X66397462Y18778588D01*
X66444350Y18853837D01*
X66502301Y18942725D01*
X66568157Y19040146D01*
X66586627Y19067018D01*
X66651482Y19161577D01*
X66708609Y19245173D01*
X66754678Y19312916D01*
X66786359Y19359914D01*
X66800324Y19381274D01*
X66800668Y19382189D01*
X66796546Y19408322D01*
X66780807Y19461260D01*
X66756004Y19534353D01*
X66724689Y19620948D01*
X66689417Y19714392D01*
X66652740Y19808035D01*
X66617212Y19895223D01*
X66585386Y19969305D01*
X66559816Y20023629D01*
X66543053Y20051543D01*
X66541374Y20053276D01*
X66529372Y20062044D01*
X66509103Y20070885D01*
X66476529Y20080708D01*
X66427616Y20092417D01*
X66358327Y20106920D01*
X66264625Y20125124D01*
X66142476Y20147934D01*
X65987842Y20176259D01*
X65955770Y20182220D01*
X65863893Y20200648D01*
X65786607Y20218108D01*
X65731236Y20232867D01*
X65705105Y20243190D01*
X65700733Y20251803D01*
X65693445Y20293174D01*
X65687669Y20361759D01*
X65683410Y20451132D01*
X65680673Y20554865D01*
X65679462Y20666535D01*
X65679782Y20779713D01*
X65681636Y20887974D01*
X65685030Y20984892D01*
X65689967Y21064041D01*
X65696452Y21118994D01*
X65704489Y21143326D01*
X65712696Y21146921D01*
X65753519Y21158252D01*
X65822524Y21174278D01*
X65914203Y21193805D01*
X66023050Y21215638D01*
X66143558Y21238582D01*
X66209357Y21250841D01*
X66322135Y21272099D01*
X66419207Y21290713D01*
X66495382Y21305672D01*
X66545469Y21315964D01*
X66564276Y21320578D01*
X66564983Y21321529D01*
X66576961Y21345690D01*
X66599794Y21396306D01*
X66630630Y21466662D01*
X66666613Y21550042D01*
X66704891Y21639730D01*
X66742609Y21729011D01*
X66776913Y21811168D01*
X66804949Y21879487D01*
X66823864Y21927252D01*
X66830803Y21947746D01*
X66827742Y21954957D01*
X66807372Y21989272D01*
X66770422Y22047030D01*
X66719860Y22123701D01*
X66658657Y22214752D01*
X66589781Y22315650D01*
X66551994Y22370907D01*
X66486782Y22467785D01*
X66430871Y22552807D01*
X66387241Y22621338D01*
X66358877Y22668740D01*
X66348759Y22690377D01*
X66355790Y22702113D01*
X66385197Y22737182D01*
X66433441Y22790255D01*
X66496093Y22856836D01*
X66568725Y22932426D01*
X66646908Y23012528D01*
X66726214Y23092646D01*
X66802213Y23168282D01*
X66870478Y23234938D01*
X66926580Y23288118D01*
X66966090Y23323324D01*
X66984579Y23336058D01*
X66994843Y23331107D01*
X67032530Y23308143D01*
X67093348Y23269062D01*
X67172913Y23216728D01*
X67266843Y23154004D01*
X67370754Y23083754D01*
X67741794Y22831449D01*
X68051080Y22958947D01*
X68360365Y23086445D01*
X68444186Y23531069D01*
X68528006Y23975693D01*
X69453454Y23975693D01*
X69537275Y23531069D01*
G37*
%TO.C,J401*%
D14*
X84644520Y27368945D02*
X85464764Y26548702D01*
X85217276Y27941702D02*
X84644520Y27368945D01*
X85790033Y28514458D02*
X86138843Y28165648D01*
X85790033Y28514458D02*
X90234199Y32958624D01*
X87081710Y27222781D02*
X87430520Y26873971D01*
X87430520Y26873971D02*
X91874686Y31318137D01*
X90234199Y32958624D02*
X90829637Y32363186D01*
X91279248Y31913575D02*
X91874686Y31318137D01*
D15*
%TO.C,G\u002A\u002A\u002A*%
G36*
X79313027Y44051916D02*
G01*
X79313027Y43686973D01*
X78948085Y43686973D01*
X78583142Y43686973D01*
X78583142Y44051916D01*
X78583142Y44416858D01*
X78948085Y44416858D01*
X79313027Y44416858D01*
X79313027Y44051916D01*
G37*
G36*
X84616858Y44051916D02*
G01*
X84616858Y43686973D01*
X84251916Y43686973D01*
X83886973Y43686973D01*
X83886973Y44051916D01*
X83886973Y44416858D01*
X84251916Y44416858D01*
X84616858Y44416858D01*
X84616858Y44051916D01*
G37*
G36*
X84616858Y38748085D02*
G01*
X84616858Y38383142D01*
X84251916Y38383142D01*
X83886973Y38383142D01*
X83886973Y38748085D01*
X83886973Y39113027D01*
X84251916Y39113027D01*
X84616858Y39113027D01*
X84616858Y38748085D01*
G37*
G36*
X79700387Y39599103D02*
G01*
X79779520Y39570568D01*
X79799617Y39477970D01*
X79799103Y39455552D01*
X79770568Y39376419D01*
X79677970Y39356322D01*
X79655552Y39356836D01*
X79576419Y39385371D01*
X79556322Y39477970D01*
X79556836Y39500387D01*
X79585371Y39579520D01*
X79677970Y39599617D01*
X79700387Y39599103D01*
G37*
G36*
X80186977Y43443165D02*
G01*
X80266110Y43414630D01*
X80286207Y43322031D01*
X80285693Y43299613D01*
X80257158Y43220481D01*
X80164560Y43200383D01*
X80142142Y43200897D01*
X80063009Y43229432D01*
X80042912Y43322031D01*
X80043426Y43344449D01*
X80071961Y43423581D01*
X80164560Y43443678D01*
X80186977Y43443165D01*
G37*
G36*
X80916862Y40572283D02*
G01*
X80995995Y40543748D01*
X81016092Y40451150D01*
X81015578Y40428732D01*
X80987043Y40349600D01*
X80894445Y40329502D01*
X80872027Y40330016D01*
X80792895Y40358551D01*
X80772797Y40451150D01*
X80773311Y40473567D01*
X80801846Y40552700D01*
X80894445Y40572797D01*
X80916862Y40572283D01*
G37*
G36*
X82814564Y41302168D02*
G01*
X82893696Y41273633D01*
X82913793Y41181035D01*
X82913280Y41158617D01*
X82884745Y41079485D01*
X82792146Y41059387D01*
X82769728Y41059901D01*
X82690596Y41088436D01*
X82670498Y41181035D01*
X82671012Y41203452D01*
X82699547Y41282585D01*
X82792146Y41302682D01*
X82814564Y41302168D01*
G37*
G36*
X83057859Y43443165D02*
G01*
X83136991Y43414630D01*
X83157088Y43322031D01*
X83156575Y43299613D01*
X83128040Y43220481D01*
X83035441Y43200383D01*
X83013023Y43200897D01*
X82933891Y43229432D01*
X82913793Y43322031D01*
X82914307Y43344449D01*
X82942842Y43423581D01*
X83035441Y43443678D01*
X83057859Y43443165D01*
G37*
G36*
X85004219Y42226690D02*
G01*
X85083351Y42198154D01*
X85103448Y42105556D01*
X85102935Y42083138D01*
X85074400Y42004006D01*
X84981801Y41983908D01*
X84959383Y41984422D01*
X84880251Y42012957D01*
X84860153Y42105556D01*
X84860667Y42127974D01*
X84889202Y42207106D01*
X84981801Y42227203D01*
X85004219Y42226690D01*
G37*
G36*
X85103448Y42713793D02*
G01*
X85103448Y42470498D01*
X84495211Y42470498D01*
X83886973Y42470498D01*
X83886973Y42592146D01*
X83887487Y42614564D01*
X83916022Y42693696D01*
X84008621Y42713793D01*
X84031039Y42714307D01*
X84110171Y42742842D01*
X84130268Y42835441D01*
X84130268Y42957088D01*
X84616858Y42957088D01*
X85103448Y42957088D01*
X85103448Y42713793D01*
G37*
G36*
X85103448Y43200383D02*
G01*
X84251916Y43200383D01*
X83400383Y43200383D01*
X83400383Y44051916D01*
X83400383Y44660153D01*
X83643678Y44660153D01*
X83643678Y44051916D01*
X83643678Y43443678D01*
X84251916Y43443678D01*
X84860153Y43443678D01*
X84860153Y44051916D01*
X84860153Y44660153D01*
X84251916Y44660153D01*
X83643678Y44660153D01*
X83400383Y44660153D01*
X83400383Y44903448D01*
X84251916Y44903448D01*
X85103448Y44903448D01*
X85103448Y44051916D01*
X85103448Y43200383D01*
G37*
G36*
X85103448Y37896552D02*
G01*
X84251916Y37896552D01*
X83400383Y37896552D01*
X83400383Y38748085D01*
X83400383Y39356322D01*
X83643678Y39356322D01*
X83643678Y38748085D01*
X83643678Y38139847D01*
X84251916Y38139847D01*
X84860153Y38139847D01*
X84860153Y38748085D01*
X84860153Y39356322D01*
X84251916Y39356322D01*
X83643678Y39356322D01*
X83400383Y39356322D01*
X83400383Y39599617D01*
X84251916Y39599617D01*
X85103448Y39599617D01*
X85103448Y38748085D01*
X85103448Y37896552D01*
G37*
G36*
X79943682Y41058873D02*
G01*
X80022815Y41030338D01*
X80042912Y40937740D01*
X80043426Y40915322D01*
X80071961Y40836190D01*
X80164560Y40816092D01*
X80186977Y40815578D01*
X80266110Y40787043D01*
X80286207Y40694445D01*
X80286207Y40572797D01*
X79799617Y40572797D01*
X79313027Y40572797D01*
X79313027Y40694445D01*
X79315332Y40743265D01*
X79339895Y40792020D01*
X79411929Y40812148D01*
X79556322Y40816092D01*
X79653962Y40817245D01*
X79751473Y40829526D01*
X79791729Y40865543D01*
X79799617Y40937740D01*
X79800131Y40960157D01*
X79828666Y41039290D01*
X79921265Y41059387D01*
X79943682Y41058873D01*
G37*
G36*
X79799617Y44051916D02*
G01*
X79799617Y43200383D01*
X78948085Y43200383D01*
X78096552Y43200383D01*
X78096552Y44051916D01*
X78096552Y44660153D01*
X78339847Y44660153D01*
X78339847Y44051916D01*
X78339847Y43443678D01*
X78915645Y43443678D01*
X79137287Y43446134D01*
X79329489Y43453083D01*
X79465149Y43463440D01*
X79523883Y43476118D01*
X79536231Y43532058D01*
X79546668Y43665837D01*
X79553727Y43856731D01*
X79556322Y44084355D01*
X79556322Y44660153D01*
X78948085Y44660153D01*
X78339847Y44660153D01*
X78096552Y44660153D01*
X78096552Y44903448D01*
X78948085Y44903448D01*
X79799617Y44903448D01*
X79799617Y44084355D01*
X79799617Y44051916D01*
G37*
G36*
X84517629Y40328988D02*
G01*
X84596761Y40300453D01*
X84616858Y40207855D01*
X84617372Y40185437D01*
X84645907Y40106305D01*
X84738506Y40086207D01*
X84760924Y40085693D01*
X84840056Y40057158D01*
X84860153Y39964560D01*
X84859640Y39942142D01*
X84831105Y39863009D01*
X84738506Y39842912D01*
X84716088Y39843426D01*
X84636956Y39871961D01*
X84616858Y39964560D01*
X84616345Y39986977D01*
X84587810Y40066110D01*
X84495211Y40086207D01*
X84472793Y40085693D01*
X84393661Y40057158D01*
X84373563Y39964560D01*
X84373050Y39942142D01*
X84344515Y39863009D01*
X84251916Y39842912D01*
X84229498Y39843426D01*
X84150366Y39871961D01*
X84130268Y39964560D01*
X84130782Y39986977D01*
X84159317Y40066110D01*
X84251916Y40086207D01*
X84274334Y40086721D01*
X84353466Y40115256D01*
X84373563Y40207855D01*
X84374077Y40230272D01*
X84402612Y40309405D01*
X84495211Y40329502D01*
X84517629Y40328988D01*
G37*
G36*
X81745977Y43930268D02*
G01*
X81746394Y43873995D01*
X81755811Y43754152D01*
X81784923Y43699783D01*
X81843295Y43686973D01*
X81917805Y43660717D01*
X81940613Y43565326D01*
X81919608Y43472189D01*
X81843295Y43443678D01*
X81768786Y43417422D01*
X81745977Y43322031D01*
X81745464Y43299613D01*
X81716928Y43220481D01*
X81624330Y43200383D01*
X81601912Y43200897D01*
X81522780Y43229432D01*
X81502682Y43322031D01*
X81503196Y43344449D01*
X81531731Y43423581D01*
X81624330Y43443678D01*
X81646747Y43444192D01*
X81725880Y43472727D01*
X81745977Y43565326D01*
X81745464Y43587744D01*
X81716928Y43666876D01*
X81624330Y43686973D01*
X81601912Y43687487D01*
X81522780Y43716022D01*
X81502682Y43808621D01*
X81502168Y43831039D01*
X81473633Y43910171D01*
X81381035Y43930268D01*
X81358617Y43930782D01*
X81279485Y43959317D01*
X81259387Y44051916D01*
X81261692Y44100736D01*
X81286255Y44149491D01*
X81358289Y44169619D01*
X81502682Y44173563D01*
X81745977Y44173563D01*
X81745977Y43930268D01*
G37*
G36*
X83078168Y44415517D02*
G01*
X83122945Y44398842D01*
X83146469Y44346350D01*
X83155572Y44237541D01*
X83157088Y44051916D01*
X83156641Y43923736D01*
X83151083Y43789404D01*
X83133586Y43718832D01*
X83097316Y43691521D01*
X83035441Y43686973D01*
X83013023Y43687487D01*
X82933891Y43716022D01*
X82913793Y43808621D01*
X82911489Y43857441D01*
X82886926Y43906196D01*
X82814891Y43926324D01*
X82670498Y43930268D01*
X82572858Y43929116D01*
X82475347Y43916835D01*
X82435091Y43880817D01*
X82427203Y43808621D01*
X82427717Y43786203D01*
X82456252Y43707071D01*
X82548851Y43686973D01*
X82670498Y43686973D01*
X82670498Y43078736D01*
X82670498Y42592146D01*
X82670498Y42470498D01*
X82913793Y42470498D01*
X83011433Y42471651D01*
X83108944Y42483932D01*
X83149200Y42519949D01*
X83157088Y42592146D01*
X83156575Y42614564D01*
X83128040Y42693696D01*
X83035441Y42713793D01*
X83013023Y42714307D01*
X82933891Y42742842D01*
X82913793Y42835441D01*
X82914307Y42857859D01*
X82942842Y42936991D01*
X83035441Y42957088D01*
X83057859Y42956575D01*
X83136991Y42928040D01*
X83157088Y42835441D01*
X83157602Y42813023D01*
X83186137Y42733891D01*
X83278736Y42713793D01*
X83301154Y42714307D01*
X83380286Y42742842D01*
X83400383Y42835441D01*
X83400897Y42857859D01*
X83429432Y42936991D01*
X83522031Y42957088D01*
X83544449Y42956575D01*
X83623581Y42928040D01*
X83643678Y42835441D01*
X83643165Y42813023D01*
X83614630Y42733891D01*
X83522031Y42713793D01*
X83499613Y42713280D01*
X83420481Y42684745D01*
X83400383Y42592146D01*
X83400897Y42569728D01*
X83429432Y42490596D01*
X83522031Y42470498D01*
X83544449Y42469985D01*
X83623581Y42441449D01*
X83643678Y42348851D01*
X83643678Y42227203D01*
X84130268Y42227203D01*
X84616858Y42227203D01*
X84616858Y42105556D01*
X84616858Y41983908D01*
X84616858Y41740613D01*
X84373563Y41740613D01*
X84317290Y41740197D01*
X84197447Y41730779D01*
X84143078Y41701667D01*
X84130268Y41643295D01*
X84130841Y41625777D01*
X84146603Y41582798D01*
X84199140Y41558757D01*
X84308620Y41548276D01*
X84495211Y41545977D01*
X84560903Y41546130D01*
X84722076Y41550333D01*
X84812231Y41564343D01*
X84851534Y41593538D01*
X84860153Y41643295D01*
X84886410Y41717805D01*
X84981801Y41740613D01*
X85074938Y41719608D01*
X85103448Y41643295D01*
X85077192Y41568786D01*
X84981801Y41545977D01*
X84959383Y41545464D01*
X84880251Y41516928D01*
X84860153Y41424330D01*
X84860667Y41401912D01*
X84889202Y41322780D01*
X84981801Y41302682D01*
X85004219Y41302168D01*
X85083351Y41273633D01*
X85103448Y41181035D01*
X85102935Y41158617D01*
X85074400Y41079485D01*
X84981801Y41059387D01*
X84959383Y41059901D01*
X84880251Y41088436D01*
X84860153Y41181035D01*
X84857849Y41229855D01*
X84833286Y41278610D01*
X84761252Y41298738D01*
X84616858Y41302682D01*
X84519218Y41301530D01*
X84421707Y41289248D01*
X84381452Y41253231D01*
X84373563Y41181035D01*
X84374077Y41158617D01*
X84402612Y41079485D01*
X84495211Y41059387D01*
X84517629Y41058873D01*
X84596761Y41030338D01*
X84616858Y40937740D01*
X84617372Y40915322D01*
X84645907Y40836190D01*
X84738506Y40816092D01*
X84760924Y40815578D01*
X84840056Y40787043D01*
X84860153Y40694445D01*
X84860667Y40672027D01*
X84889202Y40592895D01*
X84981801Y40572797D01*
X85004219Y40572283D01*
X85083351Y40543748D01*
X85103448Y40451150D01*
X85102935Y40428732D01*
X85074400Y40349600D01*
X84981801Y40329502D01*
X84959383Y40330016D01*
X84880251Y40358551D01*
X84860153Y40451150D01*
X84857849Y40499970D01*
X84833286Y40548725D01*
X84761252Y40568853D01*
X84616858Y40572797D01*
X84519218Y40573950D01*
X84421707Y40586231D01*
X84381452Y40622248D01*
X84373563Y40694445D01*
X84373050Y40716862D01*
X84344515Y40795995D01*
X84251916Y40816092D01*
X84229498Y40816606D01*
X84150366Y40845141D01*
X84130268Y40937740D01*
X84129755Y40960157D01*
X84101220Y41039290D01*
X84008621Y41059387D01*
X83986203Y41058873D01*
X83907071Y41030338D01*
X83886973Y40937740D01*
X83884669Y40888920D01*
X83860106Y40840164D01*
X83788072Y40820036D01*
X83643678Y40816092D01*
X83546038Y40814940D01*
X83448527Y40802658D01*
X83408271Y40766641D01*
X83400383Y40694445D01*
X83401725Y40651718D01*
X83418399Y40606941D01*
X83470892Y40583417D01*
X83579701Y40574313D01*
X83765326Y40572797D01*
X83893506Y40572350D01*
X84027838Y40566792D01*
X84098410Y40549294D01*
X84125720Y40513025D01*
X84130268Y40451150D01*
X84129755Y40428732D01*
X84101220Y40349600D01*
X84008621Y40329502D01*
X83986203Y40328988D01*
X83907071Y40300453D01*
X83886973Y40207855D01*
X83886460Y40185437D01*
X83857925Y40106305D01*
X83765326Y40086207D01*
X83742908Y40085693D01*
X83663776Y40057158D01*
X83643678Y39964560D01*
X83641374Y39915740D01*
X83616811Y39866984D01*
X83544777Y39846856D01*
X83400383Y39842912D01*
X83302743Y39841760D01*
X83205232Y39829478D01*
X83164976Y39793461D01*
X83157088Y39721265D01*
X83155747Y39678538D01*
X83139072Y39633760D01*
X83086580Y39610237D01*
X82977771Y39601133D01*
X82792146Y39599617D01*
X82663966Y39600064D01*
X82529633Y39605622D01*
X82459062Y39623120D01*
X82431751Y39659390D01*
X82427203Y39721265D01*
X82428545Y39763991D01*
X82445219Y39808769D01*
X82497712Y39832293D01*
X82606521Y39841396D01*
X82792146Y39842912D01*
X82920326Y39843359D01*
X83054658Y39848917D01*
X83125230Y39866415D01*
X83152540Y39902685D01*
X83157088Y39964560D01*
X83157088Y40086207D01*
X82670498Y40086207D01*
X82183908Y40086207D01*
X82183908Y40207855D01*
X82184422Y40230272D01*
X82212957Y40309405D01*
X82305556Y40329502D01*
X82348282Y40330844D01*
X82393060Y40347518D01*
X82416584Y40400011D01*
X82420862Y40451150D01*
X82670498Y40451150D01*
X82671012Y40428732D01*
X82699547Y40349600D01*
X82792146Y40329502D01*
X82814564Y40330016D01*
X82893696Y40358551D01*
X82913793Y40451150D01*
X83157088Y40451150D01*
X83157602Y40428732D01*
X83186137Y40349600D01*
X83278736Y40329502D01*
X83301154Y40328988D01*
X83380286Y40300453D01*
X83400383Y40207855D01*
X83400897Y40185437D01*
X83429432Y40106305D01*
X83522031Y40086207D01*
X83544449Y40086721D01*
X83623581Y40115256D01*
X83643678Y40207855D01*
X83643165Y40230272D01*
X83614630Y40309405D01*
X83522031Y40329502D01*
X83499613Y40330016D01*
X83420481Y40358551D01*
X83400383Y40451150D01*
X83399870Y40473567D01*
X83371335Y40552700D01*
X83278736Y40572797D01*
X83256318Y40572283D01*
X83177186Y40543748D01*
X83157088Y40451150D01*
X82913793Y40451150D01*
X82913280Y40473567D01*
X82884745Y40552700D01*
X82792146Y40572797D01*
X82769728Y40572283D01*
X82690596Y40543748D01*
X82670498Y40451150D01*
X82420862Y40451150D01*
X82425687Y40508820D01*
X82427203Y40694445D01*
X82426756Y40822625D01*
X82421198Y40956957D01*
X82403701Y41027529D01*
X82367431Y41054839D01*
X82305556Y41059387D01*
X82283138Y41058873D01*
X82204006Y41030338D01*
X82183908Y40937740D01*
X82183395Y40915322D01*
X82154859Y40836190D01*
X82062261Y40816092D01*
X82039843Y40816606D01*
X81960711Y40845141D01*
X81940613Y40937740D01*
X81941127Y40960157D01*
X81969662Y41039290D01*
X82062261Y41059387D01*
X82111081Y41061692D01*
X82159836Y41086255D01*
X82179964Y41158289D01*
X82183908Y41302682D01*
X82182756Y41400322D01*
X82170474Y41497833D01*
X82134457Y41538089D01*
X82062261Y41545977D01*
X82039843Y41545464D01*
X81960711Y41516928D01*
X81940613Y41424330D01*
X81919608Y41331193D01*
X81843295Y41302682D01*
X81825777Y41302110D01*
X81782798Y41286348D01*
X81758757Y41233811D01*
X81748276Y41124330D01*
X81745977Y40937740D01*
X81746130Y40872048D01*
X81750333Y40710874D01*
X81764343Y40620720D01*
X81793538Y40581417D01*
X81843295Y40572797D01*
X81860813Y40572225D01*
X81903793Y40556463D01*
X81927834Y40503925D01*
X81938315Y40394445D01*
X81940613Y40207855D01*
X81940613Y39842912D01*
X81721648Y39842912D01*
X81662588Y39842447D01*
X81556368Y39831896D01*
X81511758Y39796331D01*
X81502682Y39721265D01*
X81503196Y39698847D01*
X81531731Y39619714D01*
X81624330Y39599617D01*
X81646747Y39599103D01*
X81725880Y39570568D01*
X81745977Y39477970D01*
X81746597Y39445532D01*
X81759848Y39395142D01*
X81806793Y39368526D01*
X81908639Y39358111D01*
X82086590Y39356322D01*
X82177415Y39356101D01*
X82318506Y39351368D01*
X82393031Y39334602D01*
X82422195Y39298229D01*
X82427203Y39234675D01*
X82427717Y39212257D01*
X82456252Y39133124D01*
X82548851Y39113027D01*
X82571269Y39113541D01*
X82650401Y39142076D01*
X82670498Y39234675D01*
X82671012Y39257092D01*
X82699547Y39336225D01*
X82792146Y39356322D01*
X82814564Y39355808D01*
X82893696Y39327273D01*
X82913793Y39234675D01*
X82913280Y39212257D01*
X82884745Y39133124D01*
X82792146Y39113027D01*
X82769728Y39112513D01*
X82690596Y39083978D01*
X82670498Y38991380D01*
X82669985Y38968962D01*
X82641449Y38889829D01*
X82548851Y38869732D01*
X82526433Y38869218D01*
X82447301Y38840683D01*
X82427203Y38748085D01*
X82426690Y38725667D01*
X82398154Y38646534D01*
X82305556Y38626437D01*
X82256736Y38624132D01*
X82207980Y38599569D01*
X82187852Y38527535D01*
X82187231Y38504789D01*
X82183908Y38383142D01*
X82185061Y38285502D01*
X82197342Y38187991D01*
X82233359Y38147735D01*
X82305556Y38139847D01*
X82327974Y38140361D01*
X82407106Y38168896D01*
X82427203Y38261494D01*
X82429508Y38310314D01*
X82454071Y38359070D01*
X82526105Y38379198D01*
X82670498Y38383142D01*
X82913793Y38383142D01*
X82913793Y38626437D01*
X82914946Y38724077D01*
X82927227Y38821588D01*
X82963244Y38861844D01*
X83035441Y38869732D01*
X83157088Y38869732D01*
X83157088Y38383142D01*
X83157088Y37896552D01*
X83035441Y37896552D01*
X83013023Y37897066D01*
X82933891Y37925601D01*
X82913793Y38018199D01*
X82911489Y38067019D01*
X82886926Y38115775D01*
X82814891Y38135903D01*
X82670498Y38139847D01*
X82572858Y38138695D01*
X82475347Y38126413D01*
X82435091Y38090396D01*
X82427203Y38018199D01*
X82426690Y37995782D01*
X82398154Y37916649D01*
X82305556Y37896552D01*
X82283138Y37897066D01*
X82204006Y37925601D01*
X82183908Y38018199D01*
X82183072Y38051010D01*
X82164080Y38110021D01*
X82100062Y38134805D01*
X81964943Y38139847D01*
X81905883Y38140312D01*
X81799663Y38150863D01*
X81755053Y38186428D01*
X81745977Y38261494D01*
X81745464Y38283912D01*
X81716928Y38363045D01*
X81624330Y38383142D01*
X81601912Y38383656D01*
X81522780Y38412191D01*
X81502682Y38504789D01*
X81745977Y38504789D01*
X81766982Y38411653D01*
X81843295Y38383142D01*
X81917805Y38409398D01*
X81940613Y38504789D01*
X81919608Y38597926D01*
X81843295Y38626437D01*
X81768786Y38600181D01*
X81745977Y38504789D01*
X81502682Y38504789D01*
X81503196Y38527207D01*
X81531731Y38606340D01*
X81624330Y38626437D01*
X81646747Y38626951D01*
X81725880Y38655486D01*
X81745977Y38748085D01*
X81766982Y38841221D01*
X81843295Y38869732D01*
X81917805Y38843476D01*
X81940613Y38748085D01*
X81941127Y38725667D01*
X81969662Y38646534D01*
X82062261Y38626437D01*
X82111081Y38628742D01*
X82159836Y38653305D01*
X82179964Y38725339D01*
X82183908Y38869732D01*
X82183908Y39113027D01*
X81843295Y39113027D01*
X81752470Y39112806D01*
X81611379Y39108073D01*
X81536855Y39091307D01*
X81507691Y39054934D01*
X81502682Y38991380D01*
X81502168Y38968962D01*
X81473633Y38889829D01*
X81381035Y38869732D01*
X81358617Y38869218D01*
X81279485Y38840683D01*
X81259387Y38748085D01*
X81258873Y38725667D01*
X81230338Y38646534D01*
X81137740Y38626437D01*
X81115322Y38625923D01*
X81036190Y38597388D01*
X81016092Y38504789D01*
X81016606Y38482372D01*
X81045141Y38403239D01*
X81137740Y38383142D01*
X81186560Y38380837D01*
X81235315Y38356274D01*
X81255443Y38284240D01*
X81259387Y38139847D01*
X81258235Y38042207D01*
X81245953Y37944696D01*
X81209936Y37904440D01*
X81137740Y37896552D01*
X81115322Y37897066D01*
X81036190Y37925601D01*
X81016092Y38018199D01*
X81015578Y38040617D01*
X80987043Y38119750D01*
X80894445Y38139847D01*
X80872027Y38139333D01*
X80792895Y38110798D01*
X80772797Y38018199D01*
X80770492Y37969379D01*
X80745930Y37920624D01*
X80673895Y37900496D01*
X80529502Y37896552D01*
X80431862Y37897704D01*
X80334351Y37909986D01*
X80294095Y37946003D01*
X80286207Y38018199D01*
X80283902Y38067019D01*
X80259340Y38115775D01*
X80187305Y38135903D01*
X80042912Y38139847D01*
X79945272Y38138695D01*
X79847761Y38126413D01*
X79807505Y38090396D01*
X79799617Y38018199D01*
X79797312Y37969379D01*
X79772750Y37920624D01*
X79700715Y37900496D01*
X79556322Y37896552D01*
X79458682Y37897704D01*
X79361171Y37909986D01*
X79320915Y37946003D01*
X79313027Y38018199D01*
X79315332Y38067019D01*
X79339895Y38115775D01*
X79411929Y38135903D01*
X79556322Y38139847D01*
X79653962Y38140999D01*
X79751473Y38153281D01*
X79791729Y38189298D01*
X79799617Y38261494D01*
X79801922Y38310314D01*
X79826485Y38359070D01*
X79898519Y38379198D01*
X80042912Y38383142D01*
X80140552Y38381990D01*
X80238063Y38369708D01*
X80278319Y38333691D01*
X80286207Y38261494D01*
X80286721Y38239077D01*
X80315256Y38159944D01*
X80407855Y38139847D01*
X80456675Y38142152D01*
X80505430Y38166715D01*
X80525558Y38238749D01*
X80529502Y38383142D01*
X80530654Y38480782D01*
X80542936Y38578293D01*
X80578953Y38618549D01*
X80651150Y38626437D01*
X80673567Y38626951D01*
X80752700Y38655486D01*
X80772797Y38748085D01*
X80772283Y38770502D01*
X80743748Y38849635D01*
X80651150Y38869732D01*
X80628732Y38870246D01*
X80549600Y38898781D01*
X80529502Y38991380D01*
X80528988Y39013797D01*
X80500453Y39092930D01*
X80407855Y39113027D01*
X80385437Y39112513D01*
X80306305Y39083978D01*
X80286207Y38991380D01*
X80286207Y38869732D01*
X79799617Y38869732D01*
X79313027Y38869732D01*
X79313027Y38748085D01*
X79313541Y38725667D01*
X79342076Y38646534D01*
X79434675Y38626437D01*
X79457092Y38625923D01*
X79536225Y38597388D01*
X79556322Y38504789D01*
X79554017Y38455969D01*
X79529455Y38407214D01*
X79457420Y38387086D01*
X79313027Y38383142D01*
X79069732Y38383142D01*
X79069732Y38139847D01*
X79068580Y38042207D01*
X79056298Y37944696D01*
X79020281Y37904440D01*
X78948085Y37896552D01*
X78925667Y37897066D01*
X78846534Y37925601D01*
X78826437Y38018199D01*
X78825923Y38040617D01*
X78797388Y38119750D01*
X78704789Y38139847D01*
X78682372Y38139333D01*
X78603239Y38110798D01*
X78583142Y38018199D01*
X78582628Y37995782D01*
X78554093Y37916649D01*
X78461494Y37896552D01*
X78439077Y37897066D01*
X78359944Y37925601D01*
X78339847Y38018199D01*
X78339333Y38040617D01*
X78310798Y38119750D01*
X78218199Y38139847D01*
X78169379Y38142152D01*
X78120624Y38166715D01*
X78100496Y38238749D01*
X78096552Y38383142D01*
X78339847Y38383142D01*
X78340999Y38285502D01*
X78353281Y38187991D01*
X78389298Y38147735D01*
X78461494Y38139847D01*
X78510314Y38142152D01*
X78559070Y38166715D01*
X78579198Y38238749D01*
X78583142Y38383142D01*
X78581990Y38480782D01*
X78569708Y38578293D01*
X78533691Y38618549D01*
X78461494Y38626437D01*
X78412674Y38624132D01*
X78363919Y38599569D01*
X78343791Y38527535D01*
X78339847Y38383142D01*
X78096552Y38383142D01*
X78097704Y38480782D01*
X78109986Y38578293D01*
X78146003Y38618549D01*
X78218199Y38626437D01*
X78240617Y38626951D01*
X78319750Y38655486D01*
X78339847Y38748085D01*
X78339333Y38770502D01*
X78310798Y38849635D01*
X78218199Y38869732D01*
X78826437Y38869732D01*
X78827589Y38772092D01*
X78839871Y38674581D01*
X78875888Y38634325D01*
X78948085Y38626437D01*
X78996905Y38628742D01*
X79045660Y38653305D01*
X79065788Y38725339D01*
X79069732Y38869732D01*
X79068580Y38967372D01*
X79056298Y39064883D01*
X79020281Y39105139D01*
X78948085Y39113027D01*
X78899265Y39110722D01*
X78850509Y39086159D01*
X78830381Y39014125D01*
X78826437Y38869732D01*
X78218199Y38869732D01*
X78195782Y38870246D01*
X78116649Y38898781D01*
X78096552Y38991380D01*
X78098857Y39040200D01*
X78123419Y39088955D01*
X78195454Y39109083D01*
X78339847Y39113027D01*
X78437487Y39114179D01*
X78534998Y39126461D01*
X78575254Y39162478D01*
X78583142Y39234675D01*
X78582628Y39257092D01*
X78554093Y39336225D01*
X78461494Y39356322D01*
X78412674Y39358627D01*
X78363919Y39383190D01*
X78343791Y39455224D01*
X78339847Y39599617D01*
X78338695Y39697257D01*
X78326413Y39794768D01*
X78290396Y39835024D01*
X78218199Y39842912D01*
X78169379Y39845217D01*
X78120624Y39869780D01*
X78100496Y39941814D01*
X78096552Y40086207D01*
X78097704Y40183847D01*
X78109986Y40281358D01*
X78146003Y40321614D01*
X78218199Y40329502D01*
X78240617Y40330016D01*
X78319750Y40358551D01*
X78339847Y40451150D01*
X78339333Y40473567D01*
X78310798Y40552700D01*
X78218199Y40572797D01*
X78195782Y40573311D01*
X78116649Y40601846D01*
X78096552Y40694445D01*
X78339847Y40694445D01*
X78341189Y40651718D01*
X78357863Y40606941D01*
X78410355Y40583417D01*
X78519164Y40574313D01*
X78704789Y40572797D01*
X78832970Y40572350D01*
X78967302Y40566792D01*
X79037874Y40549294D01*
X79065184Y40513025D01*
X79069732Y40451150D01*
X79069218Y40428732D01*
X79040683Y40349600D01*
X78948085Y40329502D01*
X78899265Y40327197D01*
X78850509Y40302635D01*
X78830381Y40230600D01*
X78826437Y40086207D01*
X78825285Y39988567D01*
X78813003Y39891056D01*
X78776986Y39850800D01*
X78704789Y39842912D01*
X78655969Y39845217D01*
X78607214Y39869780D01*
X78587086Y39941814D01*
X78583142Y40086207D01*
X78581990Y40183847D01*
X78569708Y40281358D01*
X78533691Y40321614D01*
X78461494Y40329502D01*
X78412674Y40327197D01*
X78363919Y40302635D01*
X78343791Y40230600D01*
X78339847Y40086207D01*
X78340999Y39988567D01*
X78353281Y39891056D01*
X78389298Y39850800D01*
X78461494Y39842912D01*
X78510314Y39840607D01*
X78559070Y39816045D01*
X78579198Y39744010D01*
X78583142Y39599617D01*
X78584294Y39501977D01*
X78596576Y39404466D01*
X78632593Y39364210D01*
X78704789Y39356322D01*
X78727207Y39356836D01*
X78806340Y39385371D01*
X78826437Y39477970D01*
X78826951Y39500387D01*
X78855486Y39579520D01*
X78948085Y39599617D01*
X78996905Y39601922D01*
X79045660Y39626485D01*
X79065788Y39698519D01*
X79069732Y39842912D01*
X79313027Y39842912D01*
X79313027Y39477970D01*
X79313027Y39113027D01*
X79677970Y39113027D01*
X80042912Y39113027D01*
X80042912Y39477970D01*
X80042912Y39842912D01*
X79677970Y39842912D01*
X79313027Y39842912D01*
X79069732Y39842912D01*
X79069732Y40086207D01*
X79313027Y40086207D01*
X79410667Y40087359D01*
X79508178Y40099641D01*
X79548434Y40135658D01*
X79556322Y40207855D01*
X79556836Y40230272D01*
X79585371Y40309405D01*
X79677970Y40329502D01*
X79700387Y40328988D01*
X79779520Y40300453D01*
X79799617Y40207855D01*
X79801922Y40159035D01*
X79826485Y40110279D01*
X79898519Y40090151D01*
X80042912Y40086207D01*
X80286207Y40086207D01*
X80286207Y40329502D01*
X80287359Y40427142D01*
X80299641Y40524653D01*
X80335658Y40564909D01*
X80407855Y40572797D01*
X80456675Y40570492D01*
X80505430Y40545930D01*
X80525558Y40473895D01*
X80529502Y40329502D01*
X80529502Y40086207D01*
X80772797Y40086207D01*
X80870437Y40085055D01*
X80967948Y40072773D01*
X81008204Y40036756D01*
X81016092Y39964560D01*
X81013787Y39915740D01*
X80989225Y39866984D01*
X80917190Y39846856D01*
X80772797Y39842912D01*
X80675157Y39841760D01*
X80577646Y39829478D01*
X80537390Y39793461D01*
X80529502Y39721265D01*
X80530016Y39698847D01*
X80558551Y39619714D01*
X80651150Y39599617D01*
X80673567Y39599103D01*
X80752700Y39570568D01*
X80772797Y39477970D01*
X80772283Y39455552D01*
X80743748Y39376419D01*
X80651150Y39356322D01*
X80628732Y39355808D01*
X80549600Y39327273D01*
X80529502Y39234675D01*
X80531807Y39185855D01*
X80556370Y39137099D01*
X80628404Y39116971D01*
X80772797Y39113027D01*
X80870437Y39111875D01*
X80967948Y39099593D01*
X81008204Y39063576D01*
X81016092Y38991380D01*
X81016606Y38968962D01*
X81045141Y38889829D01*
X81137740Y38869732D01*
X81259387Y38869732D01*
X81259387Y39356322D01*
X81259387Y39842912D01*
X81381035Y39842912D01*
X81403452Y39843426D01*
X81482585Y39871961D01*
X81502682Y39964560D01*
X81500378Y40013380D01*
X81475815Y40062135D01*
X81403780Y40082263D01*
X81259387Y40086207D01*
X81161747Y40087359D01*
X81064236Y40099641D01*
X81023980Y40135658D01*
X81016092Y40207855D01*
X81016606Y40230272D01*
X81045141Y40309405D01*
X81137740Y40329502D01*
X81160157Y40330016D01*
X81239290Y40358551D01*
X81259387Y40451150D01*
X81258873Y40473567D01*
X81230338Y40552700D01*
X81137740Y40572797D01*
X81095013Y40574139D01*
X81050236Y40590813D01*
X81026712Y40643306D01*
X81017608Y40752115D01*
X81016092Y40937740D01*
X81016539Y41065920D01*
X81022098Y41200252D01*
X81039595Y41270824D01*
X81075865Y41298134D01*
X81137740Y41302682D01*
X81186560Y41300378D01*
X81235315Y41275815D01*
X81255443Y41203780D01*
X81259387Y41059387D01*
X81260540Y40961747D01*
X81272821Y40864236D01*
X81308838Y40823980D01*
X81381035Y40816092D01*
X81429855Y40818397D01*
X81478610Y40842960D01*
X81498738Y40914994D01*
X81502682Y41059387D01*
X81503835Y41157027D01*
X81516116Y41254538D01*
X81552133Y41294794D01*
X81624330Y41302682D01*
X81646747Y41303196D01*
X81725880Y41331731D01*
X81745977Y41424330D01*
X81743673Y41473150D01*
X81719110Y41521905D01*
X81647075Y41542033D01*
X81502682Y41545977D01*
X81446408Y41546394D01*
X81326566Y41555811D01*
X81272196Y41584923D01*
X81259387Y41643295D01*
X81233131Y41717805D01*
X81137740Y41740613D01*
X81044603Y41719608D01*
X81016092Y41643295D01*
X80989836Y41568786D01*
X80894445Y41545977D01*
X80872027Y41545464D01*
X80792895Y41516928D01*
X80772797Y41424330D01*
X80772283Y41401912D01*
X80743748Y41322780D01*
X80651150Y41302682D01*
X80628732Y41302168D01*
X80549600Y41273633D01*
X80529502Y41181035D01*
X80527197Y41132215D01*
X80502635Y41083459D01*
X80430600Y41063331D01*
X80286207Y41059387D01*
X80188567Y41060540D01*
X80091056Y41072821D01*
X80050800Y41108838D01*
X80042912Y41181035D01*
X80042398Y41203452D01*
X80013863Y41282585D01*
X79921265Y41302682D01*
X79898847Y41302168D01*
X79819714Y41273633D01*
X79799617Y41181035D01*
X79797312Y41132215D01*
X79772750Y41083459D01*
X79700715Y41063331D01*
X79556322Y41059387D01*
X79458682Y41058235D01*
X79361171Y41045953D01*
X79320915Y41009936D01*
X79313027Y40937740D01*
X79312513Y40915322D01*
X79283978Y40836190D01*
X79191380Y40816092D01*
X79148653Y40817434D01*
X79103875Y40834108D01*
X79080352Y40886601D01*
X79071248Y40995410D01*
X79069732Y41181035D01*
X79069285Y41309215D01*
X79064522Y41424330D01*
X79313027Y41424330D01*
X79313541Y41401912D01*
X79342076Y41322780D01*
X79434675Y41302682D01*
X79457092Y41303196D01*
X79536225Y41331731D01*
X79556322Y41424330D01*
X79555808Y41446747D01*
X79527273Y41525880D01*
X79434675Y41545977D01*
X79412257Y41545464D01*
X79333124Y41516928D01*
X79313027Y41424330D01*
X79064522Y41424330D01*
X79063727Y41443547D01*
X79046229Y41514119D01*
X79009960Y41541429D01*
X78948085Y41545977D01*
X78925667Y41545464D01*
X78846534Y41516928D01*
X78826437Y41424330D01*
X78825923Y41401912D01*
X78797388Y41322780D01*
X78704789Y41302682D01*
X78682372Y41302168D01*
X78603239Y41273633D01*
X78583142Y41181035D01*
X78583656Y41158617D01*
X78612191Y41079485D01*
X78704789Y41059387D01*
X78727207Y41058873D01*
X78806340Y41030338D01*
X78826437Y40937740D01*
X78824132Y40888920D01*
X78799569Y40840164D01*
X78727535Y40820036D01*
X78583142Y40816092D01*
X78485502Y40814940D01*
X78387991Y40802658D01*
X78347735Y40766641D01*
X78339847Y40694445D01*
X78096552Y40694445D01*
X78097066Y40716862D01*
X78125601Y40795995D01*
X78218199Y40816092D01*
X78240617Y40816606D01*
X78319750Y40845141D01*
X78339847Y40937740D01*
X78339333Y40960157D01*
X78310798Y41039290D01*
X78218199Y41059387D01*
X78195782Y41059901D01*
X78116649Y41088436D01*
X78096552Y41181035D01*
X78098857Y41229855D01*
X78123419Y41278610D01*
X78195454Y41298738D01*
X78339847Y41302682D01*
X78583142Y41302682D01*
X78583142Y41521648D01*
X78583142Y41740613D01*
X78826437Y41740613D01*
X78924077Y41741766D01*
X79021588Y41754047D01*
X79061844Y41790064D01*
X79069732Y41862261D01*
X79070246Y41884678D01*
X79098781Y41963811D01*
X79191380Y41983908D01*
X79213797Y41984422D01*
X79292930Y42012957D01*
X79313027Y42105556D01*
X79310722Y42154376D01*
X79286159Y42203131D01*
X79214125Y42223259D01*
X79069732Y42227203D01*
X78826437Y42227203D01*
X78826437Y42470498D01*
X78825285Y42568138D01*
X78813003Y42665649D01*
X78776986Y42705905D01*
X78704789Y42713793D01*
X78662063Y42712452D01*
X78617285Y42695777D01*
X78593761Y42643285D01*
X78584658Y42534476D01*
X78583142Y42348851D01*
X78582695Y42220671D01*
X78577137Y42086338D01*
X78559639Y42015767D01*
X78523369Y41988456D01*
X78461494Y41983908D01*
X78418768Y41985250D01*
X78373990Y42001924D01*
X78350466Y42054417D01*
X78341363Y42163226D01*
X78339847Y42348851D01*
X78339400Y42477031D01*
X78333842Y42611363D01*
X78316344Y42681935D01*
X78280074Y42709245D01*
X78218199Y42713793D01*
X78195782Y42714307D01*
X78116649Y42742842D01*
X78096552Y42835441D01*
X78097066Y42857859D01*
X78125601Y42936991D01*
X78218199Y42957088D01*
X78240617Y42956575D01*
X78319750Y42928040D01*
X78339847Y42835441D01*
X78340361Y42813023D01*
X78368896Y42733891D01*
X78461494Y42713793D01*
X78483912Y42714307D01*
X78563045Y42742842D01*
X78583142Y42835441D01*
X78584484Y42878168D01*
X78601158Y42922945D01*
X78653650Y42946469D01*
X78762459Y42955572D01*
X78948085Y42957088D01*
X79076265Y42956641D01*
X79210597Y42951083D01*
X79281169Y42933586D01*
X79308479Y42897316D01*
X79313027Y42835441D01*
X79313541Y42813023D01*
X79342076Y42733891D01*
X79434675Y42713793D01*
X79457092Y42713280D01*
X79536225Y42684745D01*
X79556322Y42592146D01*
X79555808Y42569728D01*
X79527273Y42490596D01*
X79434675Y42470498D01*
X79412257Y42469985D01*
X79333124Y42441449D01*
X79313027Y42348851D01*
X79313541Y42326433D01*
X79342076Y42247301D01*
X79434675Y42227203D01*
X79457092Y42226690D01*
X79536225Y42198154D01*
X79556322Y42105556D01*
X79557664Y42062829D01*
X79574338Y42018052D01*
X79626830Y41994528D01*
X79735640Y41985424D01*
X79921265Y41983908D01*
X80049445Y41983461D01*
X80183777Y41977903D01*
X80254349Y41960405D01*
X80281659Y41924136D01*
X80286207Y41862261D01*
X80284866Y41819534D01*
X80268191Y41774757D01*
X80215699Y41751233D01*
X80106890Y41742129D01*
X79921265Y41740613D01*
X79855572Y41740461D01*
X79694399Y41736257D01*
X79604245Y41722247D01*
X79564942Y41693053D01*
X79556322Y41643295D01*
X79557363Y41620786D01*
X79580907Y41572849D01*
X79653688Y41551101D01*
X79799617Y41545977D01*
X79897257Y41544825D01*
X79994768Y41532543D01*
X80035024Y41496526D01*
X80042912Y41424330D01*
X80045217Y41375510D01*
X80069780Y41326754D01*
X80141814Y41306626D01*
X80286207Y41302682D01*
X80383847Y41303835D01*
X80481358Y41316116D01*
X80521614Y41352133D01*
X80529502Y41424330D01*
X80530016Y41446747D01*
X80558551Y41525880D01*
X80651150Y41545977D01*
X80744286Y41566982D01*
X80772797Y41643295D01*
X80746541Y41717805D01*
X80651150Y41740613D01*
X80602330Y41742918D01*
X80553574Y41767481D01*
X80533446Y41839515D01*
X80529502Y41983908D01*
X80529502Y42227203D01*
X80164560Y42227203D01*
X79799617Y42227203D01*
X79799617Y42592146D01*
X79799617Y42957088D01*
X80164560Y42957088D01*
X80529502Y42957088D01*
X80529502Y42713793D01*
X80530654Y42616153D01*
X80542936Y42518642D01*
X80578953Y42478386D01*
X80651150Y42470498D01*
X80699970Y42468194D01*
X80748725Y42443631D01*
X80768853Y42371596D01*
X80772797Y42227203D01*
X80773950Y42129563D01*
X80786231Y42032052D01*
X80822248Y41991796D01*
X80894445Y41983908D01*
X80916862Y41984422D01*
X80995995Y42012957D01*
X81016092Y42105556D01*
X81016606Y42127974D01*
X81045141Y42207106D01*
X81137740Y42227203D01*
X81160157Y42226690D01*
X81239290Y42198154D01*
X81259387Y42105556D01*
X81261692Y42056736D01*
X81286255Y42007980D01*
X81358289Y41987852D01*
X81502682Y41983908D01*
X81745977Y41983908D01*
X81745977Y41764943D01*
X81746014Y41749213D01*
X81753721Y41619794D01*
X81782479Y41560304D01*
X81843295Y41545977D01*
X81850286Y41546061D01*
X81907806Y41563401D01*
X81934246Y41628107D01*
X81934953Y41643295D01*
X82427203Y41643295D01*
X82453459Y41568786D01*
X82548851Y41545977D01*
X82571269Y41545464D01*
X82650401Y41516928D01*
X82670498Y41424330D01*
X82669985Y41401912D01*
X82641449Y41322780D01*
X82548851Y41302682D01*
X82526433Y41302168D01*
X82447301Y41273633D01*
X82427203Y41181035D01*
X82427717Y41158617D01*
X82456252Y41079485D01*
X82548851Y41059387D01*
X82571269Y41058873D01*
X82650401Y41030338D01*
X82670498Y40937740D01*
X82672803Y40888920D01*
X82697366Y40840164D01*
X82769400Y40820036D01*
X82913793Y40816092D01*
X83157088Y40816092D01*
X83157088Y41059387D01*
X83158241Y41157027D01*
X83170522Y41254538D01*
X83206539Y41294794D01*
X83278736Y41302682D01*
X83301154Y41302168D01*
X83380286Y41273633D01*
X83400383Y41181035D01*
X83400897Y41158617D01*
X83429432Y41079485D01*
X83522031Y41059387D01*
X83544449Y41059901D01*
X83623581Y41088436D01*
X83643678Y41181035D01*
X83643165Y41203452D01*
X83614630Y41282585D01*
X83522031Y41302682D01*
X83499613Y41303196D01*
X83420481Y41331731D01*
X83400383Y41424330D01*
X83400897Y41446747D01*
X83429432Y41525880D01*
X83522031Y41545977D01*
X83615168Y41566982D01*
X83643678Y41643295D01*
X83642637Y41665805D01*
X83619093Y41713742D01*
X83546313Y41735490D01*
X83400383Y41740613D01*
X83344110Y41740197D01*
X83224267Y41730779D01*
X83169898Y41701667D01*
X83157088Y41643295D01*
X83156047Y41620786D01*
X83132503Y41572849D01*
X83059723Y41551101D01*
X82913793Y41545977D01*
X82857519Y41546394D01*
X82737677Y41555811D01*
X82683308Y41584923D01*
X82670498Y41643295D01*
X82644242Y41717805D01*
X82548851Y41740613D01*
X82455714Y41719608D01*
X82427203Y41643295D01*
X81934953Y41643295D01*
X81940613Y41764943D01*
X81941078Y41824002D01*
X81951629Y41930222D01*
X81987195Y41974833D01*
X82062261Y41983908D01*
X82084678Y41983395D01*
X82163811Y41954859D01*
X82183908Y41862261D01*
X82184422Y41839843D01*
X82212957Y41760711D01*
X82305556Y41740613D01*
X82354376Y41742918D01*
X82403131Y41767481D01*
X82423259Y41839515D01*
X82427203Y41983908D01*
X82427203Y42105556D01*
X82913793Y42105556D01*
X82915135Y42062829D01*
X82931809Y42018052D01*
X82984302Y41994528D01*
X83093111Y41985424D01*
X83278736Y41983908D01*
X83406916Y41984355D01*
X83541248Y41989914D01*
X83611820Y42007411D01*
X83639130Y42043681D01*
X83643678Y42105556D01*
X83642337Y42148282D01*
X83625662Y42193060D01*
X83573170Y42216584D01*
X83464361Y42225687D01*
X83278736Y42227203D01*
X83150556Y42226756D01*
X83016224Y42221198D01*
X82945652Y42203701D01*
X82918341Y42167431D01*
X82913793Y42105556D01*
X82427203Y42105556D01*
X82427203Y42227203D01*
X82086590Y42227203D01*
X81995765Y42227425D01*
X81854674Y42232157D01*
X81780150Y42248923D01*
X81750986Y42285297D01*
X81745977Y42348851D01*
X81743673Y42397671D01*
X81719110Y42446426D01*
X81647075Y42466554D01*
X81502682Y42470498D01*
X81405042Y42471651D01*
X81307531Y42483932D01*
X81267275Y42519949D01*
X81259387Y42592146D01*
X82183908Y42592146D01*
X82184422Y42569728D01*
X82212957Y42490596D01*
X82305556Y42470498D01*
X82327974Y42471012D01*
X82407106Y42499547D01*
X82427203Y42592146D01*
X82426690Y42614564D01*
X82398154Y42693696D01*
X82305556Y42713793D01*
X82283138Y42713280D01*
X82204006Y42684745D01*
X82183908Y42592146D01*
X81259387Y42592146D01*
X81258873Y42614564D01*
X81230338Y42693696D01*
X81137740Y42713793D01*
X81115322Y42714307D01*
X81036190Y42742842D01*
X81016092Y42835441D01*
X81015578Y42857859D01*
X80987043Y42936991D01*
X80894445Y42957088D01*
X80872027Y42957602D01*
X80792895Y42986137D01*
X80772797Y43078736D01*
X80772283Y43101154D01*
X80743748Y43180286D01*
X80651150Y43200383D01*
X80602330Y43202688D01*
X80553574Y43227251D01*
X80533446Y43299285D01*
X80532825Y43322031D01*
X80772797Y43322031D01*
X80773311Y43299613D01*
X80801846Y43220481D01*
X80894445Y43200383D01*
X80916862Y43200897D01*
X80995995Y43229432D01*
X81016092Y43322031D01*
X81015578Y43344449D01*
X80987043Y43423581D01*
X80894445Y43443678D01*
X80872027Y43443165D01*
X80792895Y43414630D01*
X80772797Y43322031D01*
X80532825Y43322031D01*
X80529502Y43443678D01*
X80529502Y43686973D01*
X80286207Y43686973D01*
X80042912Y43686973D01*
X80042912Y44295211D01*
X80042912Y44416858D01*
X80286207Y44416858D01*
X80286207Y44173563D01*
X80287359Y44075923D01*
X80299641Y43978412D01*
X80335658Y43938157D01*
X80407855Y43930268D01*
X80430272Y43929755D01*
X80509405Y43901220D01*
X80529502Y43808621D01*
X80530016Y43786203D01*
X80558551Y43707071D01*
X80651150Y43686973D01*
X80693876Y43688315D01*
X80738654Y43704990D01*
X80762178Y43757482D01*
X80771281Y43866291D01*
X80772797Y44051916D01*
X81016092Y44051916D01*
X81016606Y44029498D01*
X81045141Y43950366D01*
X81137740Y43930268D01*
X81160157Y43929755D01*
X81239290Y43901220D01*
X81259387Y43808621D01*
X81259901Y43786203D01*
X81288436Y43707071D01*
X81381035Y43686973D01*
X81403452Y43686460D01*
X81482585Y43657925D01*
X81502682Y43565326D01*
X81502168Y43542908D01*
X81473633Y43463776D01*
X81381035Y43443678D01*
X81358617Y43443165D01*
X81279485Y43414630D01*
X81259387Y43322031D01*
X81259901Y43299613D01*
X81288436Y43220481D01*
X81381035Y43200383D01*
X81429855Y43198079D01*
X81478610Y43173516D01*
X81498738Y43101481D01*
X81502682Y42957088D01*
X81503835Y42859448D01*
X81516116Y42761937D01*
X81552133Y42721681D01*
X81624330Y42713793D01*
X81646747Y42714307D01*
X81725880Y42742842D01*
X81745977Y42835441D01*
X81766982Y42928578D01*
X81843295Y42957088D01*
X81865805Y42958129D01*
X81913742Y42981674D01*
X81935490Y43054454D01*
X81940613Y43200383D01*
X81941766Y43298023D01*
X81954047Y43395534D01*
X81990064Y43435790D01*
X82062261Y43443678D01*
X82111081Y43441374D01*
X82159836Y43416811D01*
X82179964Y43344777D01*
X82183908Y43200383D01*
X82185061Y43102743D01*
X82197342Y43005232D01*
X82233359Y42964976D01*
X82305556Y42957088D01*
X82354376Y42959393D01*
X82403131Y42983956D01*
X82423259Y43055990D01*
X82427203Y43200383D01*
X82426051Y43298023D01*
X82413770Y43395534D01*
X82377752Y43435790D01*
X82305556Y43443678D01*
X82283138Y43444192D01*
X82204006Y43472727D01*
X82183908Y43565326D01*
X82183395Y43587744D01*
X82154859Y43666876D01*
X82062261Y43686973D01*
X82013441Y43689278D01*
X81964685Y43713841D01*
X81944557Y43785875D01*
X81940613Y43930268D01*
X81941766Y44027908D01*
X81954047Y44125419D01*
X81990064Y44165675D01*
X82062261Y44173563D01*
X82084678Y44173050D01*
X82163811Y44144515D01*
X82183908Y44051916D01*
X82184422Y44029498D01*
X82212957Y43950366D01*
X82305556Y43930268D01*
X82354376Y43932573D01*
X82403131Y43957136D01*
X82423259Y44029170D01*
X82427203Y44173563D01*
X82427203Y44416858D01*
X82086590Y44416858D01*
X81995765Y44417080D01*
X81854674Y44421812D01*
X81780150Y44438578D01*
X81750986Y44474952D01*
X81745977Y44538506D01*
X81743673Y44587326D01*
X81719110Y44636081D01*
X81647075Y44656209D01*
X81502682Y44660153D01*
X81259387Y44660153D01*
X81259387Y44416858D01*
X81258235Y44319218D01*
X81245953Y44221707D01*
X81209936Y44181452D01*
X81137740Y44173563D01*
X81115322Y44173050D01*
X81036190Y44144515D01*
X81016092Y44051916D01*
X80772797Y44051916D01*
X80772797Y44416858D01*
X80529502Y44416858D01*
X80286207Y44416858D01*
X80042912Y44416858D01*
X80042912Y44903448D01*
X80286207Y44903448D01*
X80383847Y44902296D01*
X80481358Y44890015D01*
X80521614Y44853998D01*
X80529502Y44781801D01*
X80530844Y44739074D01*
X80547518Y44694297D01*
X80600011Y44670773D01*
X80708820Y44661670D01*
X80894445Y44660153D01*
X81022625Y44660601D01*
X81156957Y44666159D01*
X81227529Y44683656D01*
X81254839Y44719926D01*
X81259387Y44781801D01*
X81259504Y44802378D01*
X81266671Y44851555D01*
X81298240Y44881454D01*
X81372439Y44896871D01*
X81507499Y44902604D01*
X81721648Y44903448D01*
X81799839Y44903418D01*
X81986715Y44901532D01*
X82100330Y44893224D01*
X82158915Y44873698D01*
X82180698Y44838156D01*
X82183908Y44781801D01*
X82184422Y44759383D01*
X82212957Y44680251D01*
X82305556Y44660153D01*
X82327974Y44660667D01*
X82407106Y44689202D01*
X82427203Y44781801D01*
X82427717Y44804219D01*
X82456252Y44883351D01*
X82548851Y44903448D01*
X82571269Y44902935D01*
X82650401Y44874400D01*
X82670498Y44781801D01*
X82671012Y44759383D01*
X82699547Y44680251D01*
X82792146Y44660153D01*
X82814564Y44660667D01*
X82893696Y44689202D01*
X82913793Y44781801D01*
X82914307Y44804219D01*
X82942842Y44883351D01*
X83035441Y44903448D01*
X83057859Y44902935D01*
X83136991Y44874400D01*
X83157088Y44781801D01*
X83156575Y44759383D01*
X83128040Y44680251D01*
X83035441Y44660153D01*
X83013023Y44659640D01*
X82933891Y44631105D01*
X82913793Y44538506D01*
X82914307Y44516088D01*
X82942842Y44436956D01*
X83035441Y44416858D01*
X83078168Y44415517D01*
G37*
%TD*%
%LPC*%
D16*
%TO.C,LED300*%
X67493600Y95500001D03*
X70033600Y95500001D03*
X67493600Y92960001D03*
X70033600Y92960001D03*
%TD*%
D17*
%TO.C,BZ401*%
X56200000Y55250000D03*
X63800000Y55250000D03*
%TD*%
D18*
%TO.C,J402*%
X6500000Y40000000D03*
D19*
X6500000Y44200000D03*
X6500000Y48400000D03*
X6500000Y52600000D03*
X6500000Y56800000D03*
X6500000Y61000000D03*
X6500000Y65200000D03*
X6500000Y69400000D03*
X6500000Y73600000D03*
X6500000Y77800000D03*
X6500000Y82000000D03*
X6500000Y86200000D03*
X12000000Y40000000D03*
X12000000Y44200000D03*
X12000000Y48400000D03*
X12000000Y52600000D03*
X12000000Y56800000D03*
X12000000Y61000000D03*
X12000000Y65200000D03*
X12000000Y69400000D03*
X12000000Y73600000D03*
X12000000Y77800000D03*
X12000000Y82000000D03*
X12000000Y86200000D03*
%TD*%
D20*
%TO.C,J403*%
X89300000Y82500000D03*
X89300000Y74100000D03*
D21*
X82000000Y82500000D03*
D22*
X82000000Y78300000D03*
X82000000Y74100000D03*
X76500000Y82500000D03*
X76500000Y78300000D03*
X76500000Y74100000D03*
%TD*%
D23*
%TO.C,J800*%
X85570000Y93645001D03*
X79790000Y93645001D03*
D24*
X87000000Y93145001D03*
D25*
X87000000Y97325001D03*
D24*
X78360000Y93145001D03*
D25*
X78360000Y97325001D03*
%TD*%
D26*
%TO.C,J200*%
X94450000Y2770001D03*
X5550000Y2770001D03*
D27*
X89370000Y5310001D03*
D28*
X86830000Y5310001D03*
X84290000Y5310001D03*
X81750000Y5310001D03*
X79210000Y5310001D03*
X76670000Y5310001D03*
X74130000Y5310001D03*
X71590000Y5310001D03*
X69050000Y5310001D03*
X66510000Y5310001D03*
X63970000Y5310001D03*
X61430000Y5310001D03*
X58890000Y5310001D03*
X56350000Y5310001D03*
X53810000Y5310001D03*
X51270000Y5310001D03*
X48730000Y5310001D03*
X46190000Y5310001D03*
X43650000Y5310001D03*
X41110000Y5310001D03*
X38570000Y5310001D03*
X36030000Y5310001D03*
X33490000Y5310001D03*
X30950000Y5310001D03*
X28410000Y5310001D03*
X25870000Y5310001D03*
X23330000Y5310001D03*
X20790000Y5310001D03*
X18250000Y5310001D03*
X15710000Y5310001D03*
X13170000Y5310001D03*
X10630000Y5310001D03*
X89370000Y7850001D03*
X86830000Y7850001D03*
X84290000Y7850001D03*
X81750000Y7850001D03*
X79210000Y7850001D03*
X76670000Y7850001D03*
X74130000Y7850001D03*
X71590000Y7850001D03*
X69050000Y7850001D03*
X66510000Y7850001D03*
X63970000Y7850001D03*
X61430000Y7850001D03*
X58890000Y7850001D03*
X56350000Y7850001D03*
X53810000Y7850001D03*
X51270000Y7850001D03*
X48730000Y7850001D03*
X46190000Y7850001D03*
X43650000Y7850001D03*
X41110000Y7850001D03*
X38570000Y7850001D03*
X36030000Y7850001D03*
X33490000Y7850001D03*
X30950000Y7850001D03*
X28410000Y7850001D03*
X25870000Y7850001D03*
X23330000Y7850001D03*
X20790000Y7850001D03*
X18250000Y7850001D03*
X15710000Y7850001D03*
X13170000Y7850001D03*
X10630000Y7850001D03*
X89370000Y10390001D03*
X86830000Y10390001D03*
X84290000Y10390001D03*
X81750000Y10390001D03*
X79210000Y10390001D03*
X76670000Y10390001D03*
X74130000Y10390001D03*
X71590000Y10390001D03*
X69050000Y10390001D03*
X66510000Y10390001D03*
X63970000Y10390001D03*
X61430000Y10390001D03*
X58890000Y10390001D03*
X56350000Y10390001D03*
X53810000Y10390001D03*
X51270000Y10390001D03*
X48730000Y10390001D03*
X46190000Y10390001D03*
X43650000Y10390001D03*
X41110000Y10390001D03*
X38570000Y10390001D03*
X36030000Y10390001D03*
X33490000Y10390001D03*
X30950000Y10390001D03*
X28410000Y10390001D03*
X25870000Y10390001D03*
X23330000Y10390001D03*
X20790000Y10390001D03*
X18250000Y10390001D03*
X15710000Y10390001D03*
X13170000Y10390001D03*
X10630000Y10390001D03*
%TD*%
D29*
%TO.C,IC408*%
X48000000Y76800000D03*
X40380000Y76800000D03*
X32760000Y76800000D03*
D30*
X32760000Y26000000D03*
D29*
X36570000Y26000000D03*
X40380000Y26000000D03*
X44190000Y26000000D03*
D30*
X48000000Y26000000D03*
%TD*%
D31*
%TO.C,BTN400*%
X63709415Y96700838D03*
X62079415Y96700838D03*
X60339415Y96700838D03*
X58709415Y96700838D03*
D32*
X64709415Y94450838D03*
X57709415Y94450838D03*
%TD*%
D33*
%TO.C,SW401*%
X47000000Y98500000D03*
D16*
X44460000Y98500000D03*
X49540000Y98500000D03*
%TD*%
D20*
%TO.C,J400*%
X89300000Y66150000D03*
X89300000Y57750000D03*
D21*
X82000000Y66150000D03*
D22*
X82000000Y61950000D03*
X82000000Y57750000D03*
X76500000Y66150000D03*
X76500000Y61950000D03*
X76500000Y57750000D03*
%TD*%
D16*
%TO.C,LED301*%
X72543600Y95500001D03*
X75083600Y95500001D03*
X72543600Y92960001D03*
X75083600Y92960001D03*
%TD*%
D34*
%TO.C,J401*%
X86037520Y27121458D03*
D35*
X86935546Y28019484D03*
X87833571Y28917509D03*
X88731597Y29815535D03*
X89629622Y30713560D03*
X90527648Y31611586D03*
%TD*%
%LPD*%
M02*
