%TF.GenerationSoftware,KiCad,Pcbnew,10.0.1*%
%TF.CreationDate,2026-04-20T20:43:20+02:00*%
%TF.ProjectId,ATX_PSU,4154585f-5053-4552-9e6b-696361645f70,0*%
%TF.SameCoordinates,Original*%
%TF.FileFunction,Paste,Top*%
%TF.FilePolarity,Positive*%
%FSLAX46Y46*%
G04 Gerber Fmt 4.6, Leading zero omitted, Abs format (unit mm)*
G04 Created by KiCad (PCBNEW 10.0.1) date 2026-04-20 20:43:20*
%MOMM*%
%LPD*%
G01*
G04 APERTURE LIST*
G04 Aperture macros list*
%AMRoundRect*
0 Rectangle with rounded corners*
0 $1 Rounding radius*
0 $2 $3 $4 $5 $6 $7 $8 $9 X,Y pos of 4 corners*
0 Add a 4 corners polygon primitive as box body*
4,1,4,$2,$3,$4,$5,$6,$7,$8,$9,$2,$3,0*
0 Add four circle primitives for the rounded corners*
1,1,$1+$1,$2,$3*
1,1,$1+$1,$4,$5*
1,1,$1+$1,$6,$7*
1,1,$1+$1,$8,$9*
0 Add four rect primitives between the rounded corners*
20,1,$1+$1,$2,$3,$4,$5,0*
20,1,$1+$1,$4,$5,$6,$7,0*
20,1,$1+$1,$6,$7,$8,$9,0*
20,1,$1+$1,$8,$9,$2,$3,0*%
G04 Aperture macros list end*
%ADD10RoundRect,0.140000X-0.170000X0.140000X-0.170000X-0.140000X0.170000X-0.140000X0.170000X0.140000X0*%
%ADD11RoundRect,0.248780X-0.451220X0.261220X-0.451220X-0.261220X0.451220X-0.261220X0.451220X0.261220X0*%
%ADD12RoundRect,0.075000X-0.075000X0.725000X-0.075000X-0.725000X0.075000X-0.725000X0.075000X0.725000X0*%
%ADD13RoundRect,0.075000X-0.725000X0.075000X-0.725000X-0.075000X0.725000X-0.075000X0.725000X0.075000X0*%
%ADD14RoundRect,0.140000X0.170000X-0.140000X0.170000X0.140000X-0.170000X0.140000X-0.170000X-0.140000X0*%
%ADD15RoundRect,0.140000X-0.140000X-0.170000X0.140000X-0.170000X0.140000X0.170000X-0.140000X0.170000X0*%
%ADD16RoundRect,0.140000X0.140000X0.170000X-0.140000X0.170000X-0.140000X-0.170000X0.140000X-0.170000X0*%
%ADD17RoundRect,0.125000X1.125000X1.375000X-1.125000X1.375000X-1.125000X-1.375000X1.125000X-1.375000X0*%
%ADD18RoundRect,0.220000X0.255000X-0.220000X0.255000X0.220000X-0.255000X0.220000X-0.255000X-0.220000X0*%
%ADD19R,0.510000X0.760000*%
%ADD20R,4.520000X3.970000*%
%ADD21RoundRect,0.125000X-0.537500X-0.125000X0.537500X-0.125000X0.537500X0.125000X-0.537500X0.125000X0*%
%ADD22R,0.663000X0.225000*%
%ADD23R,0.563000X0.225000*%
%ADD24R,0.225000X0.563000*%
%ADD25RoundRect,0.125000X1.375000X-1.125000X1.375000X1.125000X-1.375000X1.125000X-1.375000X-1.125000X0*%
%ADD26RoundRect,0.220000X-0.255000X0.220000X-0.255000X-0.220000X0.255000X-0.220000X0.255000X0.220000X0*%
%ADD27RoundRect,0.250000X0.450000X0.350000X-0.450000X0.350000X-0.450000X-0.350000X0.450000X-0.350000X0*%
%ADD28RoundRect,0.075000X-0.075000X0.662500X-0.075000X-0.662500X0.075000X-0.662500X0.075000X0.662500X0*%
%ADD29RoundRect,0.075000X-0.662500X0.075000X-0.662500X-0.075000X0.662500X-0.075000X0.662500X0.075000X0*%
%ADD30RoundRect,0.200000X-0.200000X-0.275000X0.200000X-0.275000X0.200000X0.275000X-0.200000X0.275000X0*%
%ADD31RoundRect,0.250000X0.250000X-0.650000X0.250000X0.650000X-0.250000X0.650000X-0.250000X-0.650000X0*%
%ADD32R,1.100000X1.300000*%
%ADD33RoundRect,0.150000X0.150000X0.425000X-0.150000X0.425000X-0.150000X-0.425000X0.150000X-0.425000X0*%
%ADD34RoundRect,0.075000X0.075000X0.500000X-0.075000X0.500000X-0.075000X-0.500000X0.075000X-0.500000X0*%
%ADD35O,1.000000X2.100000*%
%ADD36O,1.000000X1.800000*%
%ADD37RoundRect,0.150000X0.150000X-0.590000X0.150000X0.590000X-0.150000X0.590000X-0.150000X-0.590000X0*%
%ADD38RoundRect,0.112500X-0.237500X0.112500X-0.237500X-0.112500X0.237500X-0.112500X0.237500X0.112500X0*%
%ADD39RoundRect,0.220000X0.220000X0.255000X-0.220000X0.255000X-0.220000X-0.255000X0.220000X-0.255000X0*%
%ADD40RoundRect,0.160000X-0.325000X0.160000X-0.325000X-0.160000X0.325000X-0.160000X0.325000X0.160000X0*%
%ADD41RoundRect,0.075000X-0.075000X0.350000X-0.075000X-0.350000X0.075000X-0.350000X0.075000X0.350000X0*%
%ADD42RoundRect,0.150000X-0.150000X0.590000X-0.150000X-0.590000X0.150000X-0.590000X0.150000X0.590000X0*%
%ADD43RoundRect,0.140000X0.219203X0.021213X0.021213X0.219203X-0.219203X-0.021213X-0.021213X-0.219203X0*%
%ADD44R,1.400000X1.200000*%
%ADD45RoundRect,0.172500X-0.172500X0.172500X-0.172500X-0.172500X0.172500X-0.172500X0.172500X0.172500X0*%
%ADD46RoundRect,0.062500X-0.062500X0.350000X-0.062500X-0.350000X0.062500X-0.350000X0.062500X0.350000X0*%
%ADD47RoundRect,0.062500X-0.350000X0.062500X-0.350000X-0.062500X0.350000X-0.062500X0.350000X0.062500X0*%
%ADD48RoundRect,0.112500X0.237500X-0.112500X0.237500X0.112500X-0.237500X0.112500X-0.237500X-0.112500X0*%
%ADD49O,0.630000X2.250000*%
%ADD50RoundRect,0.125000X0.345000X0.125000X-0.345000X0.125000X-0.345000X-0.125000X0.345000X-0.125000X0*%
G04 APERTURE END LIST*
D10*
%TO.C,R447*%
X56000000Y18500000D03*
X56000000Y17500000D03*
%TD*%
D11*
%TO.C,R455*%
X19290000Y61170000D03*
X19290000Y59350000D03*
%TD*%
D12*
%TO.C,U405*%
X78705000Y42110001D03*
X78205000Y42110001D03*
X77705000Y42110001D03*
X77205000Y42110001D03*
X76705000Y42110001D03*
X76205000Y42110001D03*
X75705000Y42110001D03*
X75205000Y42110001D03*
X74705000Y42110001D03*
X74205000Y42110001D03*
X73705000Y42110001D03*
X73205000Y42110001D03*
X72705000Y42110001D03*
X72205000Y42110001D03*
X71705000Y42110001D03*
X71205000Y42110001D03*
X70705000Y42110001D03*
X70205000Y42110001D03*
X69705000Y42110001D03*
X69205000Y42110001D03*
X68705000Y42110001D03*
X68205000Y42110001D03*
X67705000Y42110001D03*
X67205000Y42110001D03*
X66705000Y42110001D03*
D13*
X65030000Y40435001D03*
X65030000Y39935001D03*
X65030000Y39435001D03*
X65030000Y38935001D03*
X65030000Y38435001D03*
X65030000Y37935001D03*
X65030000Y37435001D03*
X65030000Y36935001D03*
X65030000Y36435001D03*
X65030000Y35935001D03*
X65030000Y35435001D03*
X65030000Y34935001D03*
X65030000Y34435001D03*
X65030000Y33935001D03*
X65030000Y33435001D03*
X65030000Y32935001D03*
X65030000Y32435001D03*
X65030000Y31935001D03*
X65030000Y31435001D03*
X65030000Y30935001D03*
X65030000Y30435001D03*
X65030000Y29935001D03*
X65030000Y29435001D03*
X65030000Y28935001D03*
X65030000Y28435001D03*
D12*
X66705000Y26760001D03*
X67205000Y26760001D03*
X67705000Y26760001D03*
X68205000Y26760001D03*
X68705000Y26760001D03*
X69205000Y26760001D03*
X69705000Y26760001D03*
X70205000Y26760001D03*
X70705000Y26760001D03*
X71205000Y26760001D03*
X71705000Y26760001D03*
X72205000Y26760001D03*
X72705000Y26760001D03*
X73205000Y26760001D03*
X73705000Y26760001D03*
X74205000Y26760001D03*
X74705000Y26760001D03*
X75205000Y26760001D03*
X75705000Y26760001D03*
X76205000Y26760001D03*
X76705000Y26760001D03*
X77205000Y26760001D03*
X77705000Y26760001D03*
X78205000Y26760001D03*
X78705000Y26760001D03*
D13*
X80380000Y28435001D03*
X80380000Y28935001D03*
X80380000Y29435001D03*
X80380000Y29935001D03*
X80380000Y30435001D03*
X80380000Y30935001D03*
X80380000Y31435001D03*
X80380000Y31935001D03*
X80380000Y32435001D03*
X80380000Y32935001D03*
X80380000Y33435001D03*
X80380000Y33935001D03*
X80380000Y34435001D03*
X80380000Y34935001D03*
X80380000Y35435001D03*
X80380000Y35935001D03*
X80380000Y36435001D03*
X80380000Y36935001D03*
X80380000Y37435001D03*
X80380000Y37935001D03*
X80380000Y38435001D03*
X80380000Y38935001D03*
X80380000Y39435001D03*
X80380000Y39935001D03*
X80380000Y40435001D03*
%TD*%
D14*
%TO.C,R445*%
X55250000Y52500000D03*
X55250000Y53500000D03*
%TD*%
D15*
%TO.C,R434*%
X60858400Y92600000D03*
X61858400Y92600000D03*
%TD*%
D16*
%TO.C,C412*%
X49500000Y15500000D03*
X48500000Y15500000D03*
%TD*%
D10*
%TO.C,C432*%
X68834000Y46728000D03*
X68834000Y45728000D03*
%TD*%
%TO.C,R903*%
X87480000Y19660001D03*
X87480000Y18660001D03*
%TD*%
D16*
%TO.C,R308*%
X87830000Y12910001D03*
X86830000Y12910001D03*
%TD*%
%TO.C,R456*%
X24750000Y76250000D03*
X23750000Y76250000D03*
%TD*%
D17*
%TO.C,F402*%
X40750000Y90250000D03*
X35250000Y90250000D03*
%TD*%
D14*
%TO.C,C402*%
X63500000Y39378000D03*
X63500000Y40378000D03*
%TD*%
%TO.C,C501*%
X76775000Y14200000D03*
X76775000Y15200000D03*
%TD*%
D15*
%TO.C,R716*%
X83630000Y22760001D03*
X84630000Y22760001D03*
%TD*%
D18*
%TO.C,D400*%
X12500000Y95710000D03*
X12500000Y97290000D03*
%TD*%
%TO.C,D301*%
X85480000Y12920001D03*
X85480000Y14500001D03*
%TD*%
D19*
%TO.C,Q417*%
X20905000Y18225000D03*
X19635000Y18225000D03*
X18365000Y18225000D03*
X17095000Y18225000D03*
X17095000Y12735000D03*
X18365000Y12735000D03*
X19635000Y12735000D03*
X20905000Y12735000D03*
D20*
X19000000Y14840000D03*
%TD*%
D14*
%TO.C,C601*%
X72225000Y14200000D03*
X72225000Y15200000D03*
%TD*%
%TO.C,R600*%
X76775000Y16350000D03*
X76775000Y17350000D03*
%TD*%
D21*
%TO.C,U408*%
X11862500Y21475000D03*
X11862500Y20825000D03*
X11862500Y20175000D03*
X11862500Y19525000D03*
X14137500Y19525000D03*
X14137500Y20175000D03*
X14137500Y20825000D03*
X14137500Y21475000D03*
%TD*%
D15*
%TO.C,R801*%
X84980000Y88610001D03*
X85980000Y88610001D03*
%TD*%
D16*
%TO.C,C600*%
X74975000Y18250000D03*
X73975000Y18250000D03*
%TD*%
D22*
%TO.C,U801*%
X92761500Y13685001D03*
D23*
X92711500Y13285001D03*
D24*
X92880000Y12716501D03*
X93280000Y12716501D03*
X93680000Y12716501D03*
D23*
X93848500Y13285001D03*
X93848500Y13685001D03*
D24*
X93680000Y14253501D03*
X93280000Y14253501D03*
X92880000Y14253501D03*
%TD*%
D17*
%TO.C,F405*%
X12750000Y26000000D03*
X7250000Y26000000D03*
%TD*%
D25*
%TO.C,F401*%
X18750000Y64000000D03*
X18750000Y69500000D03*
%TD*%
D14*
%TO.C,R437*%
X81900000Y36685001D03*
X81900000Y37685001D03*
%TD*%
D15*
%TO.C,R464*%
X38991050Y19580049D03*
X39991050Y19580049D03*
%TD*%
D18*
%TO.C,D405*%
X20000000Y95710000D03*
X20000000Y97290000D03*
%TD*%
D16*
%TO.C,C422*%
X81518000Y42418000D03*
X80518000Y42418000D03*
%TD*%
D14*
%TO.C,R442*%
X74180000Y89560001D03*
X74180000Y90560001D03*
%TD*%
D16*
%TO.C,C500*%
X79575000Y18250000D03*
X78575000Y18250000D03*
%TD*%
D10*
%TO.C,R902*%
X88380000Y19660001D03*
X88380000Y18660001D03*
%TD*%
%TO.C,C410*%
X83770000Y37670000D03*
X83770000Y36670000D03*
%TD*%
D16*
%TO.C,C424*%
X67310000Y43942000D03*
X66310000Y43942000D03*
%TD*%
D10*
%TO.C,R700*%
X81955000Y35360001D03*
X81955000Y34360001D03*
%TD*%
D26*
%TO.C,D409*%
X26500000Y97290000D03*
X26500000Y95710000D03*
%TD*%
D18*
%TO.C,D412*%
X38500000Y95710000D03*
X38500000Y97290000D03*
%TD*%
D10*
%TO.C,R432*%
X32000000Y94000000D03*
X32000000Y93000000D03*
%TD*%
D14*
%TO.C,R440*%
X75080000Y89550000D03*
X75080000Y90550000D03*
%TD*%
D26*
%TO.C,D701*%
X85805000Y40625001D03*
X85805000Y39045001D03*
%TD*%
D10*
%TO.C,R408*%
X23000000Y94000000D03*
X23000000Y93000000D03*
%TD*%
D14*
%TO.C,R441*%
X75970000Y89550000D03*
X75970000Y90550000D03*
%TD*%
D15*
%TO.C,C420*%
X76208000Y43688000D03*
X77208000Y43688000D03*
%TD*%
D10*
%TO.C,R701*%
X84630000Y35360001D03*
X84630000Y34360001D03*
%TD*%
D18*
%TO.C,D410*%
X32000000Y95710000D03*
X32000000Y97290000D03*
%TD*%
D27*
%TO.C,Y700*%
X90780000Y37760001D03*
X88580000Y37760001D03*
X88580000Y36160001D03*
X90780000Y36160001D03*
%TD*%
D28*
%TO.C,U700*%
X91030000Y33522501D03*
X90530000Y33522501D03*
X90030000Y33522501D03*
X89530000Y33522501D03*
X89030000Y33522501D03*
X88530000Y33522501D03*
X88030000Y33522501D03*
X87530000Y33522501D03*
X87030000Y33522501D03*
X86530000Y33522501D03*
X86030000Y33522501D03*
X85530000Y33522501D03*
D29*
X84117500Y32110001D03*
X84117500Y31610001D03*
X84117500Y31110001D03*
X84117500Y30610001D03*
X84117500Y30110001D03*
X84117500Y29610001D03*
X84117500Y29110001D03*
X84117500Y28610001D03*
X84117500Y28110001D03*
X84117500Y27610001D03*
X84117500Y27110001D03*
X84117500Y26610001D03*
D28*
X85530000Y25197501D03*
X86030000Y25197501D03*
X86530000Y25197501D03*
X87030000Y25197501D03*
X87530000Y25197501D03*
X88030000Y25197501D03*
X88530000Y25197501D03*
X89030000Y25197501D03*
X89530000Y25197501D03*
X90030000Y25197501D03*
X90530000Y25197501D03*
X91030000Y25197501D03*
D29*
X92442500Y26610001D03*
X92442500Y27110001D03*
X92442500Y27610001D03*
X92442500Y28110001D03*
X92442500Y28610001D03*
X92442500Y29110001D03*
X92442500Y29610001D03*
X92442500Y30110001D03*
X92442500Y30610001D03*
X92442500Y31110001D03*
X92442500Y31610001D03*
X92442500Y32110001D03*
%TD*%
D10*
%TO.C,R448*%
X55000000Y18500000D03*
X55000000Y17500000D03*
%TD*%
%TO.C,R439*%
X82830000Y37685001D03*
X82830000Y36685001D03*
%TD*%
D30*
%TO.C,R404*%
X93260000Y23300000D03*
X94900000Y23300000D03*
%TD*%
D15*
%TO.C,R707*%
X83480000Y41910001D03*
X84480000Y41910001D03*
%TD*%
D10*
%TO.C,R407*%
X15500000Y94000000D03*
X15500000Y93000000D03*
%TD*%
D11*
%TO.C,R467*%
X19520000Y21470000D03*
X19520000Y19650000D03*
%TD*%
D10*
%TO.C,R406*%
X20000000Y94000000D03*
X20000000Y93000000D03*
%TD*%
D16*
%TO.C,C708*%
X89230000Y35050001D03*
X88230000Y35050001D03*
%TD*%
D10*
%TO.C,R705*%
X93530000Y36160001D03*
X93530000Y35160001D03*
%TD*%
%TO.C,C404*%
X79605000Y26685001D03*
X79605000Y25685001D03*
%TD*%
D31*
%TO.C,X300*%
X74105000Y46735001D03*
X76605000Y46735001D03*
%TD*%
D10*
%TO.C,R458*%
X22500000Y70370000D03*
X22500000Y69370000D03*
%TD*%
D18*
%TO.C,D406*%
X15500000Y95710000D03*
X15500000Y97290000D03*
%TD*%
D32*
%TO.C,Y400*%
X70295000Y46770000D03*
X70295000Y44670000D03*
X71945000Y44670000D03*
X71945000Y46770000D03*
%TD*%
D15*
%TO.C,R710*%
X93900000Y24400000D03*
X94900000Y24400000D03*
%TD*%
%TO.C,R715*%
X83630000Y23635001D03*
X84630000Y23635001D03*
%TD*%
D30*
%TO.C,R416*%
X69430000Y50810000D03*
X71070000Y50810000D03*
%TD*%
D10*
%TO.C,C801*%
X76880000Y90560001D03*
X76880000Y89560001D03*
%TD*%
D15*
%TO.C,C419*%
X79590000Y45420001D03*
X80590000Y45420001D03*
%TD*%
D17*
%TO.C,F400*%
X40750000Y85250000D03*
X35250000Y85250000D03*
%TD*%
D33*
%TO.C,J800*%
X85880000Y92570001D03*
X85080000Y92570001D03*
D34*
X83930000Y92570001D03*
X82930000Y92570001D03*
X82430000Y92570001D03*
X81430000Y92570001D03*
D33*
X80280000Y92570001D03*
X79480000Y92570001D03*
X79480000Y92570001D03*
X80280000Y92570001D03*
D34*
X80930000Y92570001D03*
X81930000Y92570001D03*
X83430000Y92570001D03*
X84430000Y92570001D03*
D33*
X85080000Y92570001D03*
X85880000Y92570001D03*
D35*
X87000000Y93145001D03*
D36*
X87000000Y97325001D03*
D35*
X78360000Y93145001D03*
D36*
X78360000Y97325001D03*
%TD*%
D14*
%TO.C,C406*%
X68834000Y43696000D03*
X68834000Y44696000D03*
%TD*%
%TO.C,C409*%
X22112500Y60750000D03*
X22112500Y61750000D03*
%TD*%
D37*
%TO.C,Q404*%
X71300000Y52870000D03*
X73200000Y52870000D03*
X72250000Y54750000D03*
%TD*%
D38*
%TO.C,U402*%
X92337500Y9772500D03*
X92337500Y8472500D03*
X94337500Y9122500D03*
%TD*%
D15*
%TO.C,C707*%
X90130000Y35060001D03*
X91130000Y35060001D03*
%TD*%
D10*
%TO.C,R901*%
X84530000Y18560001D03*
X84530000Y17560001D03*
%TD*%
D16*
%TO.C,C403*%
X64955000Y27535001D03*
X63955000Y27535001D03*
%TD*%
%TO.C,R709*%
X94180000Y22210001D03*
X93180000Y22210001D03*
%TD*%
D10*
%TO.C,R805*%
X77780000Y90560001D03*
X77780000Y89560001D03*
%TD*%
%TO.C,R800*%
X78680000Y90560001D03*
X78680000Y89560001D03*
%TD*%
D14*
%TO.C,R457*%
X24350000Y69370000D03*
X24350000Y70370000D03*
%TD*%
%TO.C,R702*%
X93930000Y29110001D03*
X93930000Y30110001D03*
%TD*%
D10*
%TO.C,R431*%
X26500000Y94000000D03*
X26500000Y93000000D03*
%TD*%
D14*
%TO.C,C900*%
X91080000Y16710001D03*
X91080000Y17710001D03*
%TD*%
D10*
%TO.C,R444*%
X38500000Y94000000D03*
X38500000Y93000000D03*
%TD*%
D16*
%TO.C,R436*%
X80580000Y43640001D03*
X79580000Y43640001D03*
%TD*%
%TO.C,C405*%
X81526000Y41402000D03*
X80526000Y41402000D03*
%TD*%
D10*
%TO.C,R802*%
X93180000Y17760001D03*
X93180000Y16760001D03*
%TD*%
D15*
%TO.C,C701*%
X91980000Y33660001D03*
X92980000Y33660001D03*
%TD*%
D16*
%TO.C,R402*%
X68250000Y50810000D03*
X67250000Y50810000D03*
%TD*%
D10*
%TO.C,C425*%
X64270000Y44942000D03*
X64270000Y43942000D03*
%TD*%
%TO.C,C427*%
X63500000Y29456000D03*
X63500000Y28456000D03*
%TD*%
D15*
%TO.C,C700*%
X82630000Y25410001D03*
X83630000Y25410001D03*
%TD*%
%TO.C,C401*%
X73455000Y43810001D03*
X74455000Y43810001D03*
%TD*%
D14*
%TO.C,R500*%
X81325000Y14200000D03*
X81325000Y15200000D03*
%TD*%
D10*
%TO.C,C704*%
X93920000Y32362501D03*
X93920000Y31362501D03*
%TD*%
D15*
%TO.C,C429*%
X81910000Y39450000D03*
X82910000Y39450000D03*
%TD*%
D14*
%TO.C,C902*%
X91980000Y16710001D03*
X91980000Y17710001D03*
%TD*%
D15*
%TO.C,C312*%
X93280000Y15510001D03*
X94280000Y15510001D03*
%TD*%
D16*
%TO.C,R435*%
X80590000Y44520001D03*
X79590000Y44520001D03*
%TD*%
D14*
%TO.C,C702*%
X82640000Y26357501D03*
X82640000Y27357501D03*
%TD*%
D21*
%TO.C,U407*%
X49862500Y18475000D03*
X49862500Y17825000D03*
X49862500Y17175000D03*
X49862500Y16525000D03*
X52137500Y16525000D03*
X52137500Y17175000D03*
X52137500Y17825000D03*
X52137500Y18475000D03*
%TD*%
D10*
%TO.C,R706*%
X92580000Y36160001D03*
X92580000Y35160001D03*
%TD*%
D14*
%TO.C,R803*%
X94080000Y16760001D03*
X94080000Y17760001D03*
%TD*%
D10*
%TO.C,R433*%
X35000000Y94000000D03*
X35000000Y93000000D03*
%TD*%
D39*
%TO.C,FB401*%
X67092000Y46228000D03*
X65512000Y46228000D03*
%TD*%
D15*
%TO.C,R714*%
X83630000Y24510001D03*
X84630000Y24510001D03*
%TD*%
D10*
%TO.C,R900*%
X85430000Y18560001D03*
X85430000Y17560001D03*
%TD*%
D16*
%TO.C,R438*%
X61858400Y94400000D03*
X60858400Y94400000D03*
%TD*%
D40*
%TO.C,U600*%
X75075000Y16050000D03*
X73875000Y16050000D03*
X75075000Y15250000D03*
X73875000Y15250000D03*
D41*
X75450000Y17100000D03*
X74800000Y17100000D03*
X74150000Y17100000D03*
X73500000Y17100000D03*
X73500000Y14200000D03*
X74150000Y14200000D03*
X74800000Y14200000D03*
X75450000Y14200000D03*
%TD*%
D15*
%TO.C,C421*%
X77724000Y25146000D03*
X78724000Y25146000D03*
%TD*%
D14*
%TO.C,C706*%
X82830000Y34360001D03*
X82830000Y35360001D03*
%TD*%
D42*
%TO.C,Q409*%
X25200000Y74250000D03*
X23300000Y74250000D03*
X24250000Y72370000D03*
%TD*%
D15*
%TO.C,C800*%
X84980000Y90760001D03*
X85980000Y90760001D03*
%TD*%
%TO.C,C705*%
X86330000Y35050001D03*
X87330000Y35050001D03*
%TD*%
D43*
%TO.C,R712*%
X89183553Y22256448D03*
X88476447Y22963554D03*
%TD*%
D14*
%TO.C,C413*%
X10500000Y19500000D03*
X10500000Y20500000D03*
%TD*%
D15*
%TO.C,R468*%
X9000000Y17500000D03*
X10000000Y17500000D03*
%TD*%
D10*
%TO.C,R708*%
X82530000Y30610001D03*
X82530000Y29610001D03*
%TD*%
D14*
%TO.C,R443*%
X73280000Y89560001D03*
X73280000Y90560001D03*
%TD*%
D44*
%TO.C,Y900*%
X92230000Y20810001D03*
X90030000Y20810001D03*
X90030000Y19110001D03*
X92230000Y19110001D03*
%TD*%
D14*
%TO.C,R446*%
X49750000Y88500000D03*
X49750000Y89500000D03*
%TD*%
D40*
%TO.C,U500*%
X79675000Y16050000D03*
X78475000Y16050000D03*
X79675000Y15250000D03*
X78475000Y15250000D03*
D41*
X80050000Y17100000D03*
X79400000Y17100000D03*
X78750000Y17100000D03*
X78100000Y17100000D03*
X78100000Y14200000D03*
X78750000Y14200000D03*
X79400000Y14200000D03*
X80050000Y14200000D03*
%TD*%
D15*
%TO.C,R713*%
X85380000Y41910001D03*
X86380000Y41910001D03*
%TD*%
D10*
%TO.C,C400*%
X63500000Y38550999D03*
X63500000Y37550999D03*
%TD*%
D11*
%TO.C,R465*%
X47000000Y18910000D03*
X47000000Y17090000D03*
%TD*%
D42*
%TO.C,Q416*%
X8250000Y21250000D03*
X6350000Y21250000D03*
X7300000Y19370000D03*
%TD*%
D18*
%TO.C,D700*%
X84055000Y39045001D03*
X84055000Y40625001D03*
%TD*%
D16*
%TO.C,C417*%
X61858400Y93500000D03*
X60858400Y93500000D03*
%TD*%
D10*
%TO.C,R469*%
X14000000Y17000000D03*
X14000000Y16000000D03*
%TD*%
%TO.C,R405*%
X12500000Y94000000D03*
X12500000Y93000000D03*
%TD*%
D45*
%TO.C,U302*%
X88855000Y16397501D03*
X88005000Y16397501D03*
X88855000Y15547501D03*
X88005000Y15547501D03*
D46*
X89180000Y17435001D03*
X88680000Y17435001D03*
X88180000Y17435001D03*
X87680000Y17435001D03*
D47*
X86967500Y16722501D03*
X86967500Y16222501D03*
X86967500Y15722501D03*
X86967500Y15222501D03*
D46*
X87680000Y14510001D03*
X88180000Y14510001D03*
X88680000Y14510001D03*
X89180000Y14510001D03*
D47*
X89892500Y15222501D03*
X89892500Y15722501D03*
X89892500Y16222501D03*
X89892500Y16722501D03*
%TD*%
D15*
%TO.C,C314*%
X75830000Y45260001D03*
X76830000Y45260001D03*
%TD*%
D18*
%TO.C,D407*%
X23000000Y95500000D03*
X23000000Y97080000D03*
%TD*%
D48*
%TO.C,U401*%
X83100000Y88850000D03*
X83100000Y90150000D03*
X81100000Y89500000D03*
%TD*%
D21*
%TO.C,U400*%
X23612500Y63225000D03*
X23612500Y62575000D03*
X23612500Y61925000D03*
X23612500Y61275000D03*
X25887500Y61275000D03*
X25887500Y61925000D03*
X25887500Y62575000D03*
X25887500Y63225000D03*
%TD*%
D14*
%TO.C,C100*%
X63480000Y30360001D03*
X63480000Y31360001D03*
%TD*%
%TO.C,R470*%
X15000000Y16000000D03*
X15000000Y17000000D03*
%TD*%
D49*
%TO.C,U100*%
X62335000Y37965001D03*
X61065000Y37965001D03*
X59785000Y37965001D03*
X58515000Y37965001D03*
X58515000Y30905001D03*
X59785000Y30905001D03*
X61065000Y30905001D03*
X62335000Y30905001D03*
%TD*%
D15*
%TO.C,C703*%
X91980000Y25010001D03*
X92980000Y25010001D03*
%TD*%
D14*
%TO.C,R703*%
X83730000Y34360001D03*
X83730000Y35360001D03*
%TD*%
D37*
%TO.C,Q415*%
X51050000Y89560000D03*
X52950000Y89560000D03*
X52000000Y91440000D03*
%TD*%
D18*
%TO.C,D411*%
X35000000Y95710000D03*
X35000000Y97290000D03*
%TD*%
D16*
%TO.C,C313*%
X74880000Y45260001D03*
X73880000Y45260001D03*
%TD*%
D15*
%TO.C,R449*%
X39000000Y18500000D03*
X40000000Y18500000D03*
%TD*%
D16*
%TO.C,C423*%
X67302000Y44958000D03*
X66302000Y44958000D03*
%TD*%
D10*
%TO.C,C426*%
X65286000Y44950000D03*
X65286000Y43950000D03*
%TD*%
D50*
%TO.C,Q700*%
X90230000Y23560001D03*
X90230000Y22260001D03*
X92030000Y22910001D03*
%TD*%
D10*
%TO.C,C904*%
X91080000Y15760001D03*
X91080000Y14760001D03*
%TD*%
D15*
%TO.C,R804*%
X95080000Y12360001D03*
X96080000Y12360001D03*
%TD*%
D19*
%TO.C,Q410*%
X20790000Y57750000D03*
X19520000Y57750000D03*
X18250000Y57750000D03*
X16980000Y57750000D03*
X16980000Y52260000D03*
X18250000Y52260000D03*
X19520000Y52260000D03*
X20790000Y52260000D03*
D20*
X18885000Y54365000D03*
%TD*%
D15*
%TO.C,R704*%
X81680000Y23635001D03*
X82680000Y23635001D03*
%TD*%
M02*
